<?xml version="1.0" encoding="UTF-8"?>
<svg id="Layer_1" data-name="Layer 1" xmlns="http://www.w3.org/2000/svg" viewBox="0 0 1700.52 749.62">
  <defs>
    <style>
      .cls-1 {
        fill: #7c947a;
      }

      .cls-2 {
        fill: #302f2f;
      }

      .cls-3 {
        fill: #d6ae76;
      }
    </style>
  </defs>
  <path class="cls-2" d="M644.26,469.17h-16.26v-86.22h16.26v15.9c4.67-11.04,15.14-18.14,30.09-18.14,21.12,0,31.96,12.34,31.96,35.34v53.12h-16.08v-46.01c0-19.26-6.36-28.43-21.68-28.43s-24.3,11.41-24.3,28.8v45.64Z"/>
  <path class="cls-2" d="M762.1,471.41c-28.04,0-44.86-20.2-44.86-45.26s16.82-45.44,44.86-45.44,44.86,20.19,44.86,45.44-17.01,45.26-44.86,45.26ZM762.1,456.83c18.13,0,28.6-13.47,28.6-30.68s-10.47-30.86-28.6-30.86-28.79,13.47-28.79,30.86,10.65,30.68,28.79,30.68Z"/>
  <path class="cls-2" d="M852.78,469.17h-13.27l-37.94-86.22h17.38l27.1,64.52,27.29-64.52h17.38l-37.95,86.22Z"/>
  <path class="cls-2" d="M929.73,471.41c-27.48,0-42.62-19.82-42.62-45.26s16.26-45.44,42.99-45.44c13.64,0,24.86,6.92,30.28,17.58v-15.34h16.08v86.22h-16.08v-15.15c-5.42,10.66-17.76,17.39-30.65,17.39ZM931.97,456.83c18.88,0,29.16-14.03,29.16-30.68s-10.28-30.86-29.16-30.86c-17.76,0-28.78,13.1-28.78,30.86s11.03,30.68,28.78,30.68Z"/>
  <path class="cls-2" d="M1023.9,471.41c-21.12,0-35.7-12.15-35.7-28.05h16.08c0,8.42,7.85,14.96,20.56,14.96,9.53,0,15.89-4.67,15.89-12.34,0-5.8-2.62-9.73-12.9-12.35l-17.57-4.48c-12.71-3.56-19.44-11.79-19.44-23.76,0-14.59,13.46-24.68,32.15-24.68,20.56,0,33.08,9.91,33.08,25.99h-15.89c0-8.23-6.54-13.46-17.76-13.46-8.97,0-15.51,4.3-15.51,11.4,0,5.43,3.18,9.36,12.52,11.97l17.76,4.87c12.71,3.55,20,11.97,20,23.94,0,16.45-12.9,25.99-33.27,25.99Z"/>
  <path class="cls-2" d="M1102.89,455.7c3.18,0,8.41-.56,10.84-1.12v14.4c-3.18.75-8.97,1.31-14.58,1.31-10.09,0-26.35-1.87-26.35-29.74v-43.95h-15.51v-13.65h15.51v-27.7h16.26v27.7h21.68v13.65h-21.68v40.4c0,16.46,5.61,18.7,13.83,18.7Z"/>
  <path class="cls-2" d="M1185.78,427.28v-44.33h16.08v87.9c0,13.66-4.11,24.13-11.59,31.05-6.92,5.98-16.45,9.35-28.22,9.35s-22.43-3.18-29.16-8.98c-6.17-5.23-9.53-12.72-9.72-22.25h16.26c.75,10.47,6.35,17.58,22.43,17.58,14.58,0,23.92-8.23,23.92-27.87v-16.08c-5.05,10.47-15.33,17.58-29.91,17.58-22.43,0-32.71-14.97-32.71-36.85v-51.43h16.08v48.07c0,15.33,5.05,25.81,22.06,25.81s24.49-14.03,24.49-29.55Z"/>
  <path class="cls-2" d="M1237.07,469.17h-16.26v-113.92h16.26v113.92Z"/>
  <path class="cls-2" d="M1332.07,421.29c0,3.18,0,5.61-.37,9.54h-66.73c.37,16.64,10.65,26.37,27.1,26.37,11.41,0,19.26-4.49,22.81-12.72h16.26c-2.99,15.9-18.88,26.93-39.07,26.93-26.54,0-43.18-17.58-43.18-45.44s16.82-45.26,42.43-45.26,40.74,16.83,40.74,40.58ZM1264.97,418.3h51.22c0-15.15-9.35-24.5-25.05-24.5s-25.42,9.91-26.17,24.5Z"/>
  <path class="cls-2" d="M1372.73,471.41c-21.13,0-35.71-12.15-35.71-28.05h16.08c0,8.42,7.85,14.96,20.56,14.96,9.53,0,15.89-4.67,15.89-12.34,0-5.8-2.62-9.73-12.9-12.35l-17.57-4.48c-12.71-3.56-19.44-11.79-19.44-23.76,0-14.59,13.46-24.68,32.15-24.68,20.56,0,33.09,9.91,33.09,25.99h-15.89c0-8.23-6.55-13.46-17.76-13.46-8.97,0-15.51,4.3-15.51,11.4,0,5.43,3.17,9.36,12.52,11.97l17.76,4.87c12.71,3.55,20,11.97,20,23.94,0,16.45-12.9,25.99-33.27,25.99Z"/>
  <path class="cls-3" d="M463.48,467.66c2.28,2.3,5.38,3.59,8.61,3.59h68.12c4.93,0,7.77-5.57,4.73-9.47-72.79-93.45-188.39-115.74-243.8-115.25-3.26.03-5.81,2.72-5.81,5.98v112.66c0,3.36,2.72,6.08,6.07,6.08h54.73c3.35,0,6.07-2.72,6.07-6.08v-84.99c0-5.43,6.56-8.14,10.37-4.29l90.9,91.77Z"/>
  <path class="cls-3" d="M383.85,242.34c-2.28-2.3-5.38-3.59-8.61-3.59h-68.12c-4.93,0-7.77,5.57-4.73,9.47,72.79,93.44,188.39,115.73,243.8,115.25,3.26-.03,5.81-2.72,5.81-5.98v-112.66c0-3.36-2.72-6.08-6.07-6.08h-54.73c-3.35,0-6.07,2.72-6.07,6.08v84.99c0,5.43-6.56,8.14-10.38,4.29l-90.9-91.77Z"/>
  <path class="cls-3" d="M462.66,467.66c2.28,2.3,5.38,3.59,8.61,3.59h68.12c4.93,0,7.77-5.57,4.73-9.47-72.79-93.45-188.39-115.74-243.8-115.25-3.26.03-5.81,2.72-5.81,5.98v112.66c0,3.36,2.72,6.08,6.07,6.08h54.73c3.35,0,6.07-2.72,6.07-6.08v-84.99c0-5.43,6.56-8.14,10.37-4.29l90.9,91.77Z"/>
  <path class="cls-1" d="M383.85,241.95c-2.28-2.3-5.38-3.59-8.61-3.59h-68.12c-4.93,0-7.77,5.57-4.73,9.47,72.79,93.45,188.39,115.74,243.8,115.25,3.26-.03,5.81-2.72,5.81-5.98v-112.66c0-3.36-2.72-6.08-6.07-6.08h-54.73c-3.35,0-6.07,2.72-6.07,6.08v84.99c0,5.43-6.56,8.14-10.38,4.29l-90.9-91.77Z"/>
</svg>