<?xml version="1.0" encoding="UTF-8"?>
<svg id="Layer_1" data-name="Layer 1" xmlns="http://www.w3.org/2000/svg" viewBox="0 0 1700.52 749.62">
  <defs>
    <style>
      .cls-1 {
        fill: #7c947a;
      }

      .cls-2 {
        fill: #302f2f;
      }

      .cls-3 {
        fill: #4e4e4e;
      }

      .cls-4 {
        fill: #d6ae76;
      }
    </style>
  </defs>
  <g>
    <path class="cls-2" d="M632.93,390.53h-16.95v-89.71h16.95v16.54c4.87-11.48,15.78-18.88,31.37-18.88,22.02,0,33.32,12.85,33.32,36.78v55.27h-16.76v-47.87c0-20.05-6.62-29.58-22.6-29.58-16.76,0-25.33,11.87-25.33,29.97v47.48Z"/>
    <path class="cls-2" d="M755.77,392.86c-29.23,0-46.76-21.01-46.76-47.09s17.54-47.29,46.76-47.29,46.76,21.02,46.76,47.29-17.73,47.09-46.76,47.09ZM755.77,377.68c18.9,0,29.81-14.01,29.81-31.91s-10.91-32.11-29.81-32.11-30.01,14.01-30.01,32.11,11.11,31.91,30.01,31.91Z"/>
    <path class="cls-2" d="M850.3,390.53h-13.83l-39.55-89.71h18.12l28.25,67.13,28.45-67.13h18.12l-39.55,89.71Z"/>
    <path class="cls-2" d="M930.51,392.86c-28.64,0-44.43-20.63-44.43-47.09s16.95-47.29,44.82-47.29c14.22,0,25.91,7.2,31.57,18.29v-15.95h16.76v89.71h-16.76v-15.77c-5.65,11.1-18.51,18.1-31.95,18.1ZM932.84,377.68c19.68,0,30.4-14.59,30.4-31.91s-10.72-32.11-30.4-32.11c-18.51,0-30.01,13.62-30.01,32.11s11.5,31.91,30.01,31.91Z"/>
    <path class="cls-2" d="M1028.67,392.86c-22.02,0-37.22-12.65-37.22-29.19h16.76c0,8.76,8.18,15.57,21.43,15.57,9.94,0,16.56-4.87,16.56-12.84,0-6.04-2.73-10.12-13.44-12.85l-18.32-4.67c-13.25-3.69-20.26-12.26-20.26-24.71,0-15.18,14.03-25.69,33.51-25.69,21.43,0,34.49,10.32,34.49,27.05h-16.56c0-8.56-6.82-14.01-18.51-14.01-9.35,0-16.17,4.48-16.17,11.87,0,5.64,3.31,9.73,13.05,12.46l18.51,5.05c13.25,3.7,20.85,12.46,20.85,24.91,0,17.13-13.45,27.05-34.68,27.05Z"/>
    <path class="cls-2" d="M1111.01,376.52c3.31,0,8.77-.59,11.3-1.17v14.98c-3.31.78-9.35,1.36-15.2,1.36-10.52,0-27.47-1.94-27.47-30.94v-45.73h-16.17v-14.2h16.17v-28.41h16.95v28.41h22.6v14.2h-22.6v42.04c0,17.12,5.85,19.46,14.42,19.46Z"/>
    <path class="cls-2" d="M1197.42,346.94v-46.12h16.76v91.46c0,14.2-4.29,25.1-12.08,32.3-7.21,6.23-17.15,9.73-29.42,9.73s-23.38-3.31-30.4-9.34c-6.43-5.45-9.94-13.23-10.13-23.16h16.95c.78,10.9,6.62,18.29,23.38,18.29,15.2,0,24.94-8.56,24.94-28.99v-16.74c-5.26,10.9-15.98,18.3-31.17,18.3-23.38,0-34.1-15.57-34.1-38.34v-53.51h16.76v50.01c0,15.96,5.26,26.85,22.99,26.85s25.52-14.59,25.52-30.74Z"/>
    <path class="cls-2" d="M1250.88,390.53h-16.95v-136.22h16.95v136.22Z"/>
    <path class="cls-2" d="M1349.92,340.71c0,3.31,0,5.84-.39,9.92h-69.56c.39,17.32,11.11,27.44,28.25,27.44,11.89,0,20.07-4.67,23.77-13.23h16.95c-3.11,16.54-19.67,28.02-40.72,28.02-27.67,0-45.01-18.29-45.01-47.29s17.54-47.09,44.23-47.09,42.48,17.52,42.48,42.23ZM1279.97,337.6h53.39c0-15.77-9.74-25.5-26.11-25.5s-26.5,10.32-27.28,25.5Z"/>
    <path class="cls-2" d="M1392.29,392.86c-22.01,0-37.21-12.65-37.21-29.19h16.76c0,8.76,8.18,15.57,21.43,15.57,9.94,0,16.56-4.87,16.56-12.84,0-6.04-2.73-10.12-13.44-12.85l-18.32-4.67c-13.25-3.69-20.26-12.26-20.26-24.71,0-15.18,14.03-25.69,33.51-25.69,21.43,0,34.49,10.32,34.49,27.05h-16.56c0-8.56-6.82-14.01-18.51-14.01-9.36,0-16.18,4.48-16.18,11.87,0,5.64,3.32,9.73,13.06,12.46l18.51,5.05c13.25,3.7,20.85,12.46,20.85,24.91,0,17.13-13.45,27.05-34.69,27.05Z"/>
    <path class="cls-3" d="M621.19,454.22c-3.08,0-5.21-2.31-5.21-5.21s2.13-5.29,5.21-5.29,5.14,2.39,5.14,5.29-2.13,5.21-5.14,5.21ZM624.34,494.42h-6.31v-34.32h6.31v34.32Z"/>
    <path class="cls-3" d="M638.09,494.42h-6.38v-34.32h6.38v6.33c1.83-4.39,5.94-7.22,11.81-7.22,8.29,0,12.54,4.91,12.54,14.07v21.14h-6.31v-18.32c0-7.66-2.49-11.31-8.51-11.31s-9.54,4.54-9.54,11.46v18.17Z"/>
    <path class="cls-3" d="M682.66,489.06c1.25,0,3.3-.23,4.25-.45v5.73c-1.25.3-3.52.52-5.72.52-3.96,0-10.34-.74-10.34-11.83v-17.5h-6.09v-5.43h6.09v-10.87h6.38v10.87h8.51v5.43h-8.51v16.08c0,6.55,2.2,7.45,5.43,7.45Z"/>
    <path class="cls-3" d="M720.48,475.36c0,1.27,0,2.23-.15,3.8h-26.19c.15,6.62,4.18,10.49,10.63,10.49,4.48,0,7.56-1.78,8.95-5.06h6.38c-1.17,6.33-7.41,10.72-15.33,10.72-10.41,0-16.94-7-16.94-18.09s6.6-18.01,16.65-18.01,15.99,6.7,15.99,16.15ZM694.15,474.17h20.1c0-6.03-3.67-9.75-9.83-9.75s-9.98,3.94-10.27,9.75Z"/>
    <path class="cls-3" d="M731.52,494.42h-6.38v-34.32h6.38v7.82c1.32-5.81,5.65-8.34,9.9-8.34,1.17,0,2.27.07,3.08.3v5.95c-1.1-.22-1.98-.22-3.15-.22-6.68,0-9.83,6.18-9.83,13.84v14.97Z"/>
    <path class="cls-3" d="M751.06,454.22c-3.08,0-5.21-2.31-5.21-5.21s2.13-5.29,5.21-5.29,5.14,2.39,5.14,5.29-2.13,5.21-5.14,5.21ZM754.21,494.42h-6.31v-34.32h6.31v34.32Z"/>
    <path class="cls-3" d="M776.46,495.31c-11,0-17.6-8.04-17.6-18.01s6.6-18.09,17.6-18.09,17.6,8.04,17.6,18.09-6.67,18.01-17.6,18.01ZM776.46,489.5c7.11,0,11.22-5.36,11.22-12.2s-4.11-12.29-11.22-12.29-11.3,5.36-11.3,12.29,4.18,12.2,11.3,12.2Z"/>
    <path class="cls-3" d="M804.97,494.42h-6.38v-34.32h6.38v7.82c1.32-5.81,5.65-8.34,9.9-8.34,1.17,0,2.27.07,3.08.3v5.95c-1.1-.22-1.98-.22-3.15-.22-6.67,0-9.83,6.18-9.83,13.84v14.97Z"/>
    <path class="cls-3" d="M850.25,495.31c-10.78,0-16.72-7.89-16.72-18.01s6.38-18.09,16.87-18.09c5.35,0,9.76,2.75,11.88,6.99v-6.1h6.31v34.32h-6.31v-6.03c-2.13,4.24-6.97,6.92-12.03,6.92ZM851.13,489.5c7.41,0,11.44-5.58,11.44-12.2s-4.03-12.29-11.44-12.29c-6.97,0-11.3,5.21-11.3,12.29s4.33,12.2,11.3,12.2Z"/>
    <path class="cls-3" d="M882.29,494.42h-6.38v-34.32h6.38v6.33c1.83-4.39,5.94-7.22,11.81-7.22,8.29,0,12.54,4.91,12.54,14.07v21.14h-6.31v-18.32c0-7.66-2.49-11.31-8.51-11.31s-9.54,4.54-9.54,11.46v18.17Z"/>
    <path class="cls-3" d="M939.68,466.2v-23.89h6.31v52.11h-6.31v-6.03c-2.13,4.24-6.97,6.92-12.03,6.92-10.78,0-16.72-7.89-16.72-18.01s6.38-18.09,16.87-18.09c5.35,0,9.76,2.75,11.88,6.99ZM928.53,489.5c7.41,0,11.44-5.58,11.44-12.2s-4.03-12.29-11.44-12.29c-6.97,0-11.3,5.21-11.3,12.29s4.33,12.2,11.3,12.2Z"/>
    <path class="cls-3" d="M982.28,495.31c-10.42,0-16.8-7.37-16.8-18.01s6.38-18.02,16.8-18.02c9.1,0,14.96,5.06,15.77,12.73h-6.38c-.88-4.54-4.11-6.92-9.46-6.92-6.46,0-10.42,4.54-10.42,12.21s3.96,12.2,10.42,12.2c5.35,0,8.58-2.38,9.46-6.7h6.38c-.81,7.52-6.67,12.51-15.77,12.51Z"/>
    <path class="cls-3" d="M1017.89,495.31c-11,0-17.6-8.04-17.6-18.01s6.6-18.09,17.6-18.09,17.6,8.04,17.6,18.09-6.67,18.01-17.6,18.01ZM1017.89,489.5c7.12,0,11.22-5.36,11.22-12.2s-4.11-12.29-11.22-12.29-11.3,5.36-11.3,12.29,4.18,12.2,11.3,12.2Z"/>
    <path class="cls-3" d="M1046.4,494.42h-6.38v-34.32h6.38v6.33c1.83-4.39,5.94-7.22,11.81-7.22,8.29,0,12.54,4.91,12.54,14.07v21.14h-6.31v-18.32c0-7.66-2.49-11.31-8.51-11.31-6.31,0-9.54,4.54-9.54,11.46v18.17Z"/>
    <path class="cls-3" d="M1089.05,495.31c-8.29,0-14.01-4.84-14.01-11.17h6.31c0,3.35,3.08,5.96,8.07,5.96,3.74,0,6.24-1.86,6.24-4.91,0-2.31-1.03-3.87-5.06-4.92l-6.89-1.78c-4.99-1.42-7.63-4.69-7.63-9.46,0-5.8,5.28-9.82,12.62-9.82,8.07,0,12.98,3.94,12.98,10.34h-6.23c0-3.27-2.57-5.36-6.97-5.36-3.52,0-6.09,1.72-6.09,4.55,0,2.15,1.25,3.72,4.91,4.76l6.97,1.94c4.99,1.41,7.85,4.76,7.85,9.52,0,6.55-5.06,10.35-13.06,10.35Z"/>
    <path class="cls-3" d="M1120.04,489.06c1.25,0,3.3-.23,4.25-.45v5.73c-1.25.3-3.52.52-5.72.52-3.96,0-10.34-.74-10.34-11.83v-17.5h-6.09v-5.43h6.09v-10.87h6.38v10.87h8.51v5.43h-8.51v16.08c0,6.55,2.2,7.45,5.43,7.45Z"/>
    <path class="cls-3" d="M1134.75,494.42h-6.38v-34.32h6.38v7.82c1.32-5.81,5.65-8.34,9.9-8.34,1.17,0,2.27.07,3.08.3v5.95c-1.1-.22-1.98-.22-3.15-.22-6.67,0-9.83,6.18-9.83,13.84v14.97Z"/>
    <path class="cls-3" d="M1163.6,495.31c-7.55,0-12.84-4.62-12.84-14.07v-21.14h6.38v19.65c0,6.03,2.2,9.98,8.22,9.98,6.97,0,9.61-5.36,9.61-10.87v-18.76h6.38v34.32h-6.38v-6.26c-1.83,4.25-5.79,7.15-11.37,7.15Z"/>
    <path class="cls-3" d="M1202.73,495.31c-10.42,0-16.8-7.37-16.8-18.01s6.38-18.02,16.8-18.02c9.1,0,14.96,5.06,15.77,12.73h-6.38c-.88-4.54-4.11-6.92-9.46-6.92-6.45,0-10.42,4.54-10.42,12.21s3.96,12.2,10.42,12.2c5.35,0,8.58-2.38,9.46-6.7h6.38c-.81,7.52-6.67,12.51-15.77,12.51Z"/>
    <path class="cls-3" d="M1236.89,489.06c1.25,0,3.3-.23,4.25-.45v5.73c-1.25.3-3.52.52-5.72.52-3.96,0-10.34-.74-10.34-11.83v-17.5h-6.09v-5.43h6.09v-10.87h6.38v10.87h8.51v5.43h-8.51v16.08c0,6.55,2.2,7.45,5.43,7.45Z"/>
    <path class="cls-3" d="M1248.36,454.22c-3.08,0-5.21-2.31-5.21-5.21s2.13-5.29,5.21-5.29,5.13,2.39,5.13,5.29-2.13,5.21-5.13,5.21ZM1251.52,494.42h-6.31v-34.32h6.31v34.32Z"/>
    <path class="cls-3" d="M1273.77,495.31c-11.01,0-17.61-8.04-17.61-18.01s6.6-18.09,17.61-18.09,17.6,8.04,17.6,18.09-6.68,18.01-17.6,18.01ZM1273.77,489.5c7.11,0,11.22-5.36,11.22-12.2s-4.11-12.29-11.22-12.29-11.3,5.36-11.3,12.29,4.18,12.2,11.3,12.2Z"/>
    <path class="cls-3" d="M1302.28,494.42h-6.39v-34.32h6.39v6.33c1.83-4.39,5.94-7.22,11.8-7.22,8.29,0,12.55,4.91,12.55,14.07v21.14h-6.31v-18.32c0-7.66-2.49-11.31-8.51-11.31s-9.53,4.54-9.53,11.46v18.17Z"/>
    <path class="cls-3" d="M1344.93,495.31c-8.29,0-14.01-4.84-14.01-11.17h6.3c0,3.35,3.08,5.96,8.07,5.96,3.74,0,6.24-1.86,6.24-4.91,0-2.31-1.03-3.87-5.06-4.92l-6.9-1.78c-4.99-1.42-7.63-4.69-7.63-9.46,0-5.8,5.28-9.82,12.62-9.82,8.07,0,12.98,3.94,12.98,10.34h-6.23c0-3.27-2.57-5.36-6.97-5.36-3.52,0-6.09,1.72-6.09,4.55,0,2.15,1.25,3.72,4.91,4.76l6.97,1.94c4.99,1.41,7.85,4.76,7.85,9.52,0,6.55-5.06,10.35-13.05,10.35Z"/>
  </g>
  <g>
    <path class="cls-4" d="M448.38,491.59c2.36,2.38,5.57,3.72,8.91,3.72h70.49c5.11,0,8.04-5.76,4.9-9.8-75.33-96.7-194.95-119.77-252.29-119.27-3.37.03-6.01,2.82-6.01,6.2v116.57c0,3.48,2.81,6.3,6.28,6.3h56.63c3.47,0,6.28-2.82,6.28-6.3v-87.94c0-5.62,6.79-8.43,10.74-4.44l94.07,94.96Z"/>
    <path class="cls-4" d="M365.98,258.43c-2.36-2.38-5.57-3.72-8.91-3.72h-70.49c-5.11,0-8.04,5.76-4.9,9.8,75.33,96.7,194.95,119.77,252.29,119.27,3.37-.03,6.01-2.82,6.01-6.2v-116.57c0-3.48-2.81-6.3-6.28-6.3h-56.63c-3.47,0-6.28,2.82-6.28,6.3v87.94c0,5.62-6.79,8.43-10.74,4.44l-94.07-94.96Z"/>
    <path class="cls-4" d="M447.54,491.59c2.36,2.38,5.57,3.72,8.91,3.72h70.49c5.11,0,8.04-5.76,4.9-9.8-75.33-96.7-194.95-119.77-252.29-119.27-3.37.03-6.01,2.82-6.01,6.2v116.57c0,3.48,2.81,6.3,6.28,6.3h56.63c3.47,0,6.28-2.82,6.28-6.3v-87.94c0-5.62,6.79-8.43,10.74-4.44l94.07,94.96Z"/>
    <path class="cls-1" d="M365.98,258.03c-2.36-2.38-5.57-3.72-8.91-3.72h-70.49c-5.11,0-8.04,5.76-4.9,9.8,75.33,96.7,194.95,119.77,252.29,119.27,3.37-.03,6.01-2.82,6.01-6.2v-116.57c0-3.48-2.81-6.3-6.28-6.3h-56.63c-3.47,0-6.28,2.82-6.28,6.3v87.94c0,5.62-6.79,8.43-10.74,4.44l-94.07-94.96Z"/>
  </g>
</svg>