<?xml version="1.0" encoding="UTF-8"?>
<svg id="Layer_1" data-name="Layer 1" xmlns="http://www.w3.org/2000/svg" viewBox="0 0 1700.52 749.62">
  <defs>
    <style>
      .cls-1 {
        fill: #7c947a;
      }

      .cls-2 {
        fill: #302f2f;
      }

      .cls-3 {
        fill: #d6ae76;
      }
    </style>
  </defs>
  <path class="cls-2" d="M673.3,350.09h-11.92v-63.08h11.92v11.63c3.43-8.07,11.1-13.27,22.07-13.27,15.49,0,23.44,9.03,23.44,25.86v38.86h-11.79v-33.66c0-14.09-4.66-20.8-15.9-20.8s-17.82,8.35-17.82,21.08v33.38Z"/>
  <path class="cls-2" d="M759.72,351.73c-20.56,0-32.89-14.77-32.89-33.11s12.33-33.25,32.89-33.25,32.89,14.78,32.89,33.25-12.47,33.11-32.89,33.11ZM759.72,341.06c13.3,0,20.97-9.85,20.97-22.44s-7.67-22.58-20.97-22.58-21.11,9.86-21.11,22.58,7.81,22.44,21.11,22.44Z"/>
  <path class="cls-2" d="M826.21,350.09h-9.73l-27.82-63.08h12.75l19.87,47.21,20.01-47.21h12.75l-27.82,63.08Z"/>
  <path class="cls-2" d="M882.63,351.73c-20.15,0-31.25-14.5-31.25-33.11s11.92-33.25,31.52-33.25c10.01,0,18.23,5.06,22.2,12.86v-11.22h11.79v63.08h-11.79v-11.08c-3.98,7.8-13.02,12.72-22.48,12.72ZM884.28,341.06c13.84,0,21.38-10.26,21.38-22.44s-7.54-22.58-21.38-22.58c-13.02,0-21.11,9.58-21.11,22.58s8.09,22.44,21.11,22.44Z"/>
  <path class="cls-2" d="M951.69,351.73c-15.49,0-26.18-8.89-26.18-20.52h11.79c0,6.16,5.76,10.95,15.08,10.95,6.99,0,11.65-3.42,11.65-9.03,0-4.25-1.92-7.12-9.46-9.04l-12.88-3.28c-9.32-2.6-14.26-8.62-14.26-17.38,0-10.67,9.87-18.06,23.58-18.06,15.08,0,24.26,7.25,24.26,19.02h-11.65c0-6.02-4.8-9.85-13.02-9.85-6.58,0-11.38,3.15-11.38,8.35,0,3.96,2.33,6.84,9.18,8.75l13.02,3.56c9.32,2.6,14.66,8.76,14.66,17.52,0,12.04-9.46,19.01-24.4,19.01Z"/>
  <path class="cls-2" d="M1009.61,340.24c2.33,0,6.17-.41,7.95-.82v10.54c-2.33.54-6.58.95-10.69.95-7.4,0-19.33-1.36-19.33-21.75v-32.16h-11.38v-9.99h11.38v-19.97h11.92v19.97h15.9v9.99h-15.9v29.56c0,12.04,4.11,13.68,10.14,13.68Z"/>
  <path class="cls-2" d="M1070.39,319.44v-32.43h11.79v64.31c0,9.99-3.02,17.66-8.5,22.72-5.07,4.38-12.06,6.84-20.7,6.84s-16.45-2.33-21.38-6.57c-4.52-3.83-6.99-9.3-7.13-16.28h11.92c.55,7.66,4.66,12.86,16.45,12.86,10.69,0,17.54-6.02,17.54-20.39v-11.76c-3.7,7.66-11.24,12.86-21.93,12.86-16.45,0-23.99-10.95-23.99-26.96v-37.63h11.79v35.17c0,11.22,3.7,18.88,16.17,18.88s17.96-10.26,17.96-21.62Z"/>
  <path class="cls-2" d="M1107.99,350.09h-11.92v-95.78h11.92v95.78Z"/>
  <path class="cls-2" d="M1177.66,315.06c0,2.33,0,4.11-.27,6.98h-48.93c.27,12.18,7.81,19.3,19.87,19.3,8.36,0,14.12-3.29,16.72-9.31h11.92c-2.19,11.63-13.84,19.7-28.65,19.7-19.46,0-31.66-12.86-31.66-33.25s12.33-33.11,31.11-33.11,29.88,12.32,29.88,29.69ZM1128.46,312.87h37.55c0-11.08-6.85-17.92-18.37-17.92s-18.64,7.25-19.19,17.92Z"/>
  <path class="cls-2" d="M1207.47,351.73c-15.49,0-26.18-8.89-26.18-20.52h11.79c0,6.16,5.76,10.95,15.08,10.95,6.99,0,11.65-3.42,11.65-9.03,0-4.25-1.92-7.12-9.46-9.04l-12.88-3.28c-9.32-2.6-14.26-8.62-14.26-17.38,0-10.67,9.87-18.06,23.58-18.06,15.08,0,24.26,7.25,24.26,19.02h-11.65c0-6.02-4.8-9.85-13.02-9.85-6.58,0-11.38,3.15-11.38,8.35,0,3.96,2.33,6.84,9.18,8.75l13.02,3.56c9.32,2.6,14.67,8.76,14.67,17.52,0,12.04-9.46,19.01-24.4,19.01Z"/>
  <path class="cls-2" d="M687.7,487.2c-19.46,0-31.39-13.55-31.39-33.11s11.92-33.12,31.39-33.12c16.99,0,27.96,9.31,29.47,23.4h-11.92c-1.64-8.35-7.68-12.72-17.68-12.72-12.06,0-19.46,8.34-19.46,22.44s7.4,22.44,19.46,22.44c10.01,0,16.04-4.38,17.68-12.32h11.92c-1.51,13.82-12.47,22.99-29.47,22.99Z"/>
  <path class="cls-2" d="M754.23,487.2c-20.56,0-32.89-14.78-32.89-33.11s12.33-33.25,32.89-33.25,32.9,14.77,32.9,33.25-12.47,33.11-32.9,33.11ZM754.23,476.53c13.3,0,20.97-9.86,20.97-22.44s-7.67-22.58-20.97-22.58-21.11,9.85-21.11,22.58,7.81,22.44,21.11,22.44Z"/>
  <path class="cls-2" d="M807.5,485.56h-11.92v-63.08h11.92v11.63c3.43-8.07,11.1-13.27,22.07-13.27,15.49,0,23.44,9.03,23.44,25.86v38.86h-11.79v-33.66c0-14.1-4.66-20.8-15.9-20.8s-17.82,8.34-17.82,21.07v33.39Z"/>
  <path class="cls-2" d="M887.2,487.2c-15.49,0-26.18-8.89-26.18-20.53h11.79c0,6.16,5.76,10.95,15.08,10.95,6.99,0,11.65-3.42,11.65-9.03,0-4.24-1.92-7.12-9.46-9.03l-12.88-3.28c-9.32-2.6-14.26-8.63-14.26-17.38,0-10.68,9.87-18.06,23.58-18.06,15.08,0,24.26,7.25,24.26,19.02h-11.65c0-6.03-4.8-9.86-13.02-9.86-6.58,0-11.38,3.15-11.38,8.35,0,3.97,2.33,6.84,9.18,8.76l13.02,3.56c9.32,2.59,14.67,8.75,14.67,17.51,0,12.04-9.46,19.02-24.4,19.02Z"/>
  <path class="cls-2" d="M945.12,475.71c2.33,0,6.17-.42,7.95-.83v10.54c-2.33.55-6.58.96-10.69.96-7.4,0-19.33-1.37-19.33-21.76v-32.15h-11.38v-9.99h11.38v-19.98h11.92v19.98h15.9v9.99h-15.9v29.55c0,12.04,4.11,13.69,10.14,13.69Z"/>
  <path class="cls-2" d="M972.59,485.56h-11.92v-63.08h11.92v14.36c2.47-10.67,10.55-15.32,18.5-15.32,2.19,0,4.25.14,5.76.55v10.94c-2.06-.41-3.7-.41-5.89-.41-12.47,0-18.37,11.36-18.37,25.45v27.51Z"/>
  <path class="cls-2" d="M1026.51,487.2c-14.12,0-23.99-8.48-23.99-25.86v-38.86h11.92v36.12c0,11.08,4.11,18.34,15.35,18.34,13.02,0,17.96-9.86,17.96-19.98v-34.48h11.92v63.08h-11.92v-11.5c-3.43,7.8-10.83,13.14-21.24,13.14Z"/>
  <path class="cls-2" d="M1099.63,487.2c-19.46,0-31.39-13.55-31.39-33.11s11.92-33.12,31.39-33.12c17,0,27.96,9.31,29.47,23.4h-11.92c-1.65-8.35-7.67-12.72-17.68-12.72-12.06,0-19.46,8.34-19.46,22.44s7.4,22.44,19.46,22.44c10.01,0,16.04-4.38,17.68-12.32h11.92c-1.51,13.82-12.47,22.99-29.47,22.99Z"/>
  <path class="cls-2" d="M1163.45,475.71c2.33,0,6.17-.42,7.95-.83v10.54c-2.33.55-6.58.96-10.69.96-7.4,0-19.33-1.37-19.33-21.76v-32.15h-11.38v-9.99h11.38v-19.98h11.92v19.98h15.9v9.99h-15.9v29.55c0,12.04,4.11,13.69,10.14,13.69Z"/>
  <path class="cls-2" d="M1184.9,411.67c-5.76,0-9.73-4.24-9.73-9.58s3.98-9.72,9.73-9.72,9.59,4.38,9.59,9.72-3.97,9.58-9.59,9.58ZM1190.79,485.56h-11.79v-63.08h11.79v63.08Z"/>
  <path class="cls-2" d="M1232.37,487.2c-20.56,0-32.9-14.78-32.9-33.11s12.34-33.25,32.9-33.25,32.9,14.77,32.9,33.25-12.47,33.11-32.9,33.11ZM1232.37,476.53c13.29,0,20.97-9.86,20.97-22.44s-7.68-22.58-20.97-22.58-21.11,9.85-21.11,22.58,7.81,22.44,21.11,22.44Z"/>
  <path class="cls-2" d="M1285.64,485.56h-11.92v-63.08h11.92v11.63c3.43-8.07,11.1-13.27,22.07-13.27,15.49,0,23.44,9.03,23.44,25.86v38.86h-11.79v-33.66c0-14.1-4.66-20.8-15.9-20.8-11.79,0-17.82,8.34-17.82,21.07v33.39Z"/>
  <path class="cls-2" d="M1365.33,487.2c-15.49,0-26.18-8.89-26.18-20.53h11.79c0,6.16,5.76,10.95,15.08,10.95,6.99,0,11.65-3.42,11.65-9.03,0-4.24-1.92-7.12-9.46-9.03l-12.88-3.28c-9.32-2.6-14.26-8.63-14.26-17.38,0-10.68,9.87-18.06,23.58-18.06,15.07,0,24.26,7.25,24.26,19.02h-11.65c0-6.03-4.8-9.86-13.03-9.86-6.57,0-11.37,3.15-11.37,8.35,0,3.97,2.33,6.84,9.18,8.76l13.02,3.56c9.32,2.59,14.67,8.75,14.67,17.51,0,12.04-9.46,19.02-24.4,19.02Z"/>
  <path class="cls-3" d="M479.74,491.72c2.28,2.3,5.38,3.59,8.61,3.59h68.12c4.93,0,7.77-5.57,4.73-9.47-72.79-93.45-188.39-115.74-243.8-115.25-3.26.03-5.81,2.72-5.81,5.98v112.66c0,3.36,2.72,6.08,6.07,6.08h54.73c3.35,0,6.07-2.72,6.07-6.08v-84.99c0-5.43,6.56-8.14,10.37-4.29l90.9,91.77Z"/>
  <path class="cls-3" d="M400.12,266.4c-2.28-2.3-5.38-3.59-8.61-3.59h-68.12c-4.93,0-7.77,5.57-4.73,9.47,72.79,93.44,188.39,115.73,243.8,115.25,3.26-.03,5.81-2.72,5.81-5.98v-112.66c0-3.36-2.72-6.08-6.07-6.08h-54.73c-3.35,0-6.07,2.72-6.07,6.08v84.99c0,5.43-6.56,8.14-10.37,4.29l-90.9-91.77Z"/>
  <path class="cls-3" d="M478.93,491.72c2.28,2.3,5.38,3.59,8.61,3.59h68.12c4.93,0,7.77-5.57,4.73-9.47-72.79-93.45-188.39-115.74-243.8-115.25-3.26.03-5.81,2.72-5.81,5.98v112.66c0,3.36,2.72,6.08,6.07,6.08h54.73c3.35,0,6.07-2.72,6.07-6.08v-84.99c0-5.43,6.56-8.14,10.37-4.29l90.9,91.77Z"/>
  <path class="cls-1" d="M400.12,266.01c-2.28-2.3-5.38-3.59-8.61-3.59h-68.12c-4.93,0-7.77,5.57-4.73,9.47,72.79,93.45,188.39,115.74,243.8,115.25,3.26-.03,5.81-2.72,5.81-5.98v-112.65c0-3.37-2.72-6.09-6.07-6.09h-54.73c-3.35,0-6.07,2.72-6.07,6.09v84.98c0,5.43-6.56,8.14-10.38,4.29l-90.9-91.77Z"/>
</svg>