<?xml version="1.0" encoding="UTF-8"?>
<svg id="Layer_1" data-name="Layer 1" xmlns="http://www.w3.org/2000/svg" viewBox="0 0 1700.52 749.62">
  <defs>
    <style>
      .cls-1 {
        fill: #7c947a;
      }

      .cls-2 {
        fill: #d6ae76;
      }
    </style>
  </defs>
  <path class="cls-2" d="M891.88,491.59c2.36,2.38,5.57,3.72,8.91,3.72h70.49c5.11,0,8.04-5.76,4.9-9.8-75.33-96.7-194.95-119.77-252.29-119.27-3.37.03-6.01,2.81-6.01,6.19v116.58c0,3.48,2.81,6.3,6.28,6.3h56.63c3.47,0,6.28-2.82,6.28-6.3v-87.95c0-5.62,6.79-8.43,10.74-4.44l94.07,94.96Z"/>
  <path class="cls-2" d="M809.48,258.43c-2.36-2.38-5.57-3.72-8.91-3.72h-70.49c-5.11,0-8.04,5.76-4.9,9.8,75.33,96.7,194.95,119.77,252.29,119.27,3.37-.03,6.01-2.81,6.01-6.19v-116.58c0-3.48-2.81-6.3-6.28-6.3h-56.63c-3.47,0-6.28,2.82-6.28,6.3v87.95c0,5.62-6.79,8.42-10.74,4.44l-94.07-94.96Z"/>
  <path class="cls-2" d="M891.04,491.59c2.36,2.38,5.57,3.72,8.91,3.72h70.49c5.11,0,8.04-5.76,4.9-9.8-75.33-96.7-194.95-119.77-252.29-119.27-3.37.03-6.01,2.81-6.01,6.19v116.58c0,3.48,2.81,6.3,6.28,6.3h56.63c3.47,0,6.28-2.82,6.28-6.3v-87.95c0-5.62,6.79-8.43,10.74-4.44l94.07,94.96Z"/>
  <path class="cls-1" d="M809.48,258.03c-2.36-2.38-5.57-3.72-8.91-3.72h-70.49c-5.11,0-8.04,5.76-4.9,9.8,75.33,96.7,194.95,119.77,252.29,119.27,3.37-.03,6.01-2.81,6.01-6.19v-116.58c0-3.48-2.81-6.3-6.28-6.3h-56.63c-3.47,0-6.28,2.82-6.28,6.3v87.95c0,5.62-6.79,8.42-10.74,4.44l-94.07-94.96Z"/>
</svg>