<?xml version="1.0" encoding="UTF-8"?>
<svg id="Layer_1" data-name="Layer 1" xmlns="http://www.w3.org/2000/svg" viewBox="0 0 1700.52 749.62">
  <defs>
    <style>
      .cls-1 {
        fill: #7c947a;
      }

      .cls-2 {
        fill: #302f2f;
      }

      .cls-3 {
        fill: #4e4e4e;
      }

      .cls-4 {
        fill: #d6ae76;
      }
    </style>
  </defs>
  <path class="cls-2" d="M632.93,390.52h-16.95v-89.71h16.95v16.54c4.87-11.48,15.78-18.88,31.37-18.88,22.02,0,33.32,12.84,33.32,36.78v55.26h-16.76v-47.87c0-20.04-6.62-29.58-22.6-29.58-16.76,0-25.33,11.87-25.33,29.97v47.48Z"/>
  <path class="cls-2" d="M755.77,392.86c-29.23,0-46.76-21.02-46.76-47.09s17.54-47.29,46.76-47.29,46.76,21.02,46.76,47.29-17.73,47.09-46.76,47.09ZM755.77,377.68c18.9,0,29.81-14.01,29.81-31.91s-10.91-32.11-29.81-32.11-30.01,14.01-30.01,32.11,11.11,31.91,30.01,31.91Z"/>
  <path class="cls-2" d="M850.3,390.52h-13.83l-39.55-89.71h18.12l28.25,67.13,28.45-67.13h18.12l-39.55,89.71Z"/>
  <path class="cls-2" d="M930.51,392.86c-28.64,0-44.43-20.63-44.43-47.09s16.95-47.29,44.82-47.29c14.22,0,25.91,7.2,31.57,18.29v-15.96h16.76v89.71h-16.76v-15.76c-5.65,11.09-18.51,18.1-31.95,18.1ZM932.84,377.68c19.68,0,30.4-14.6,30.4-31.91s-10.72-32.11-30.4-32.11c-18.51,0-30.01,13.62-30.01,32.11s11.5,31.91,30.01,31.91Z"/>
  <path class="cls-2" d="M1028.67,392.86c-22.02,0-37.22-12.65-37.22-29.19h16.76c0,8.76,8.18,15.57,21.43,15.57,9.94,0,16.56-4.86,16.56-12.84,0-6.03-2.73-10.12-13.44-12.84l-18.32-4.67c-13.25-3.7-20.26-12.26-20.26-24.71,0-15.18,14.03-25.69,33.51-25.69,21.43,0,34.49,10.31,34.49,27.05h-16.56c0-8.56-6.82-14.01-18.51-14.01-9.35,0-16.17,4.48-16.17,11.87,0,5.64,3.31,9.73,13.05,12.45l18.51,5.06c13.25,3.7,20.85,12.45,20.85,24.91,0,17.12-13.45,27.05-34.68,27.05Z"/>
  <path class="cls-2" d="M1111.01,376.51c3.31,0,8.77-.58,11.3-1.17v14.98c-3.31.78-9.35,1.36-15.2,1.36-10.52,0-27.47-1.95-27.47-30.94v-45.73h-16.17v-14.21h16.17v-28.41h16.95v28.41h22.6v14.21h-22.6v42.03c0,17.12,5.85,19.46,14.42,19.46Z"/>
  <path class="cls-2" d="M1197.42,346.94v-46.12h16.75v91.46c0,14.21-4.28,25.1-12.08,32.3-7.21,6.23-17.14,9.73-29.42,9.73s-23.38-3.31-30.4-9.34c-6.43-5.45-9.94-13.23-10.13-23.16h16.95c.78,10.9,6.63,18.29,23.39,18.29,15.19,0,24.94-8.56,24.94-28.99v-16.74c-5.26,10.9-15.98,18.29-31.18,18.29-23.38,0-34.1-15.57-34.1-38.33v-53.51h16.76v50.01c0,15.96,5.26,26.85,22.99,26.85s25.53-14.6,25.53-30.75Z"/>
  <path class="cls-2" d="M1250.88,390.52h-16.95v-136.22h16.95v136.22Z"/>
  <path class="cls-2" d="M1349.92,340.71c0,3.31,0,5.84-.39,9.92h-69.56c.39,17.32,11.11,27.44,28.25,27.44,11.89,0,20.07-4.67,23.77-13.23h16.95c-3.11,16.54-19.67,28.02-40.72,28.02-27.67,0-45.01-18.29-45.01-47.29s17.54-47.09,44.23-47.09,42.48,17.51,42.48,42.23ZM1279.97,337.6h53.39c0-15.76-9.74-25.49-26.11-25.49s-26.5,10.31-27.28,25.49Z"/>
  <path class="cls-2" d="M1392.29,392.86c-22.01,0-37.21-12.65-37.21-29.19h16.76c0,8.76,8.18,15.57,21.43,15.57,9.94,0,16.56-4.86,16.56-12.84,0-6.03-2.73-10.12-13.44-12.84l-18.32-4.67c-13.25-3.7-20.26-12.26-20.26-24.71,0-15.18,14.03-25.69,33.51-25.69,21.43,0,34.49,10.31,34.49,27.05h-16.56c0-8.56-6.82-14.01-18.51-14.01-9.36,0-16.18,4.48-16.18,11.87,0,5.64,3.32,9.73,13.06,12.45l18.51,5.06c13.25,3.7,20.85,12.45,20.85,24.91,0,17.12-13.45,27.05-34.69,27.05Z"/>
  <path class="cls-3" d="M632.33,495.31c-10.42,0-16.8-7.37-16.8-18.01s6.38-18.01,16.8-18.01c9.1,0,14.96,5.06,15.77,12.73h-6.38c-.88-4.54-4.11-6.92-9.46-6.92-6.45,0-10.42,4.54-10.42,12.21s3.96,12.21,10.42,12.21c5.35,0,8.58-2.38,9.46-6.7h6.38c-.81,7.52-6.67,12.51-15.77,12.51Z"/>
  <path class="cls-3" d="M667.94,495.31c-11,0-17.6-8.04-17.6-18.01s6.6-18.09,17.6-18.09,17.6,8.04,17.6,18.09-6.67,18.01-17.6,18.01ZM667.94,489.5c7.11,0,11.22-5.36,11.22-12.21s-4.11-12.28-11.22-12.28-11.3,5.36-11.3,12.28,4.18,12.21,11.3,12.21Z"/>
  <path class="cls-3" d="M696.45,494.42h-6.38v-34.32h6.38v6.33c1.83-4.39,5.94-7.22,11.81-7.22,8.29,0,12.54,4.91,12.54,14.07v21.14h-6.31v-18.31c0-7.67-2.49-11.32-8.51-11.32s-9.53,4.54-9.53,11.46v18.16Z"/>
  <path class="cls-3" d="M739.1,495.31c-8.29,0-14.01-4.84-14.01-11.17h6.31c0,3.35,3.08,5.96,8.07,5.96,3.74,0,6.23-1.86,6.23-4.91,0-2.31-1.03-3.87-5.06-4.91l-6.9-1.79c-4.99-1.41-7.63-4.69-7.63-9.45,0-5.81,5.28-9.83,12.62-9.83,8.07,0,12.98,3.95,12.98,10.35h-6.23c0-3.28-2.57-5.36-6.97-5.36-3.52,0-6.09,1.71-6.09,4.54,0,2.16,1.25,3.72,4.91,4.76l6.97,1.93c4.99,1.41,7.85,4.76,7.85,9.53,0,6.55-5.06,10.35-13.06,10.35Z"/>
  <path class="cls-3" d="M770.1,489.06c1.25,0,3.3-.22,4.25-.45v5.73c-1.25.3-3.52.52-5.72.52-3.96,0-10.34-.74-10.34-11.83v-17.49h-6.09v-5.43h6.09v-10.87h6.38v10.87h8.51v5.43h-8.51v16.08c0,6.55,2.2,7.44,5.43,7.44Z"/>
  <path class="cls-3" d="M784.8,494.42h-6.38v-34.32h6.38v7.82c1.32-5.81,5.65-8.34,9.9-8.34,1.17,0,2.27.07,3.08.3v5.96c-1.1-.22-1.98-.22-3.15-.22-6.67,0-9.83,6.18-9.83,13.85v14.96Z"/>
  <path class="cls-3" d="M813.65,495.31c-7.55,0-12.84-4.62-12.84-14.07v-21.14h6.38v19.65c0,6.03,2.2,9.98,8.21,9.98,6.97,0,9.61-5.36,9.61-10.87v-18.76h6.38v34.32h-6.38v-6.25c-1.83,4.24-5.79,7.15-11.37,7.15Z"/>
  <path class="cls-3" d="M852.79,495.31c-10.42,0-16.8-7.37-16.8-18.01s6.38-18.01,16.8-18.01c9.1,0,14.96,5.06,15.77,12.73h-6.38c-.88-4.54-4.11-6.92-9.46-6.92-6.46,0-10.42,4.54-10.42,12.21s3.96,12.21,10.42,12.21c5.35,0,8.58-2.38,9.46-6.7h6.38c-.81,7.52-6.67,12.51-15.77,12.51Z"/>
  <path class="cls-3" d="M886.94,489.06c1.25,0,3.3-.22,4.26-.45v5.73c-1.25.3-3.52.52-5.72.52-3.96,0-10.34-.74-10.34-11.83v-17.49h-6.09v-5.43h6.09v-10.87h6.38v10.87h8.51v5.43h-8.51v16.08c0,6.55,2.2,7.44,5.43,7.44Z"/>
  <path class="cls-3" d="M898.42,454.22c-3.08,0-5.21-2.31-5.21-5.21s2.13-5.29,5.21-5.29,5.13,2.38,5.13,5.29-2.13,5.21-5.13,5.21ZM901.57,494.42h-6.31v-34.32h6.31v34.32Z"/>
  <path class="cls-3" d="M923.82,495.31c-11,0-17.6-8.04-17.6-18.01s6.6-18.09,17.6-18.09,17.6,8.04,17.6,18.09-6.67,18.01-17.6,18.01ZM923.82,489.5c7.11,0,11.22-5.36,11.22-12.21s-4.11-12.28-11.22-12.28-11.3,5.36-11.3,12.28,4.18,12.21,11.3,12.21Z"/>
  <path class="cls-3" d="M952.33,494.42h-6.38v-34.32h6.38v6.33c1.83-4.39,5.94-7.22,11.81-7.22,8.29,0,12.54,4.91,12.54,14.07v21.14h-6.31v-18.31c0-7.67-2.49-11.32-8.51-11.32-6.31,0-9.54,4.54-9.54,11.46v18.16Z"/>
  <path class="cls-3" d="M994.98,495.31c-8.29,0-14.01-4.84-14.01-11.17h6.31c0,3.35,3.08,5.96,8.07,5.96,3.74,0,6.23-1.86,6.23-4.91,0-2.31-1.03-3.87-5.06-4.91l-6.9-1.79c-4.99-1.41-7.63-4.69-7.63-9.45,0-5.81,5.28-9.83,12.62-9.83,8.07,0,12.98,3.95,12.98,10.35h-6.23c0-3.28-2.57-5.36-6.97-5.36-3.52,0-6.09,1.71-6.09,4.54,0,2.16,1.25,3.72,4.91,4.76l6.97,1.93c4.99,1.41,7.85,4.76,7.85,9.53,0,6.55-5.06,10.35-13.06,10.35Z"/>
  <path class="cls-4" d="M448.38,491.59c2.36,2.38,5.57,3.72,8.91,3.72h70.49c5.11,0,8.04-5.76,4.9-9.8-75.33-96.7-194.95-119.77-252.29-119.27-3.37.03-6.01,2.81-6.01,6.19v116.58c0,3.48,2.81,6.3,6.28,6.3h56.63c3.47,0,6.28-2.82,6.28-6.3v-87.95c0-5.62,6.79-8.43,10.74-4.44l94.07,94.96Z"/>
  <path class="cls-4" d="M365.98,258.43c-2.36-2.38-5.57-3.72-8.91-3.72h-70.49c-5.11,0-8.04,5.76-4.9,9.8,75.33,96.7,194.95,119.77,252.29,119.27,3.37-.03,6.01-2.81,6.01-6.19v-116.58c0-3.48-2.81-6.3-6.28-6.3h-56.63c-3.47,0-6.28,2.82-6.28,6.3v87.95c0,5.62-6.79,8.42-10.74,4.44l-94.07-94.96Z"/>
  <path class="cls-4" d="M447.54,491.59c2.36,2.38,5.57,3.72,8.91,3.72h70.49c5.11,0,8.04-5.76,4.9-9.8-75.33-96.7-194.95-119.77-252.29-119.27-3.37.03-6.01,2.81-6.01,6.19v116.58c0,3.48,2.81,6.3,6.28,6.3h56.63c3.47,0,6.28-2.82,6.28-6.3v-87.95c0-5.62,6.79-8.43,10.74-4.44l94.07,94.96Z"/>
  <path class="cls-1" d="M365.98,258.03c-2.36-2.38-5.57-3.72-8.91-3.72h-70.49c-5.11,0-8.04,5.76-4.9,9.8,75.33,96.7,194.95,119.77,252.29,119.27,3.37-.03,6.01-2.81,6.01-6.19v-116.58c0-3.48-2.81-6.3-6.28-6.3h-56.63c-3.47,0-6.28,2.82-6.28,6.3v87.95c0,5.62-6.79,8.42-10.74,4.44l-94.07-94.96Z"/>
</svg>