<?xml version="1.0" encoding="UTF-8"?>
<svg id="Layer_1" data-name="Layer 1" xmlns="http://www.w3.org/2000/svg" viewBox="0 0 1700.52 749.62">
  <defs>
    <style>
      .cls-1 {
        fill: #7c947a;
      }

      .cls-2 {
        fill: #302f2f;
      }

      .cls-3 {
        fill: #d6ae76;
      }
    </style>
  </defs>
  <path class="cls-2" d="M680.14,350.09h-11.9v-63.08h11.9v11.63c3.42-8.07,11.08-13.27,22.02-13.27,15.45,0,23.39,9.03,23.39,25.86v38.86h-11.76v-33.66c0-14.09-4.65-20.8-15.86-20.8s-17.78,8.35-17.78,21.08v33.38Z"/>
  <path class="cls-2" d="M766.36,351.73c-20.52,0-32.82-14.77-32.82-33.11s12.31-33.25,32.82-33.25,32.82,14.78,32.82,33.25-12.45,33.11-32.82,33.11ZM766.36,341.06c13.26,0,20.92-9.85,20.92-22.44s-7.66-22.58-20.92-22.58-21.06,9.86-21.06,22.58,7.8,22.44,21.06,22.44Z"/>
  <path class="cls-2" d="M832.71,350.09h-9.71l-27.76-63.08h12.72l19.83,47.21,19.97-47.21h12.72l-27.76,63.08Z"/>
  <path class="cls-2" d="M889.01,351.73c-20.1,0-31.18-14.5-31.18-33.11s11.9-33.25,31.46-33.25c9.98,0,18.19,5.06,22.16,12.86v-11.22h11.76v63.08h-11.76v-11.08c-3.97,7.8-12.99,12.72-22.43,12.72ZM890.65,341.06c13.81,0,21.34-10.26,21.34-22.44s-7.52-22.58-21.34-22.58c-12.99,0-21.06,9.58-21.06,22.58s8.07,22.44,21.06,22.44Z"/>
  <path class="cls-2" d="M957.91,351.73c-15.45,0-26.12-8.89-26.12-20.52h11.76c0,6.16,5.74,10.95,15.04,10.95,6.98,0,11.62-3.42,11.62-9.03,0-4.25-1.91-7.12-9.44-9.04l-12.86-3.28c-9.3-2.6-14.22-8.62-14.22-17.38,0-10.67,9.85-18.06,23.52-18.06,15.04,0,24.21,7.25,24.21,19.02h-11.62c0-6.02-4.79-9.85-12.99-9.85-6.56,0-11.35,3.15-11.35,8.35,0,3.96,2.33,6.84,9.16,8.75l12.99,3.56c9.3,2.6,14.63,8.76,14.63,17.52,0,12.04-9.44,19.01-24.34,19.01Z"/>
  <path class="cls-2" d="M1015.71,340.24c2.33,0,6.15-.41,7.93-.82v10.54c-2.33.54-6.56.95-10.67.95-7.39,0-19.28-1.36-19.28-21.75v-32.16h-11.35v-9.99h11.35v-19.97h11.9v19.97h15.86v9.99h-15.86v29.56c0,12.04,4.1,13.68,10.12,13.68Z"/>
  <path class="cls-2" d="M1076.36,319.44v-32.43h11.76v64.31c0,9.99-3.01,17.66-8.48,22.72-5.06,4.38-12.04,6.84-20.65,6.84s-16.41-2.33-21.34-6.57c-4.51-3.83-6.97-9.3-7.11-16.28h11.9c.55,7.66,4.65,12.86,16.41,12.86,10.67,0,17.51-6.02,17.51-20.39v-11.76c-3.69,7.66-11.21,12.86-21.88,12.86-16.41,0-23.93-10.95-23.93-26.96v-37.63h11.76v35.17c0,11.22,3.69,18.88,16.14,18.88s17.92-10.26,17.92-21.62Z"/>
  <path class="cls-2" d="M1113.88,350.09h-11.9v-95.78h11.9v95.78Z"/>
  <path class="cls-2" d="M1183.4,315.06c0,2.33,0,4.11-.27,6.98h-48.83c.27,12.18,7.8,19.3,19.83,19.3,8.34,0,14.09-3.29,16.68-9.31h11.9c-2.19,11.63-13.81,19.7-28.58,19.7-19.42,0-31.59-12.86-31.59-33.25s12.31-33.11,31.04-33.11,29.81,12.32,29.81,29.69ZM1134.3,312.87h37.47c0-11.08-6.84-17.92-18.33-17.92s-18.6,7.25-19.15,17.92Z"/>
  <path class="cls-2" d="M1213.14,351.73c-15.45,0-26.12-8.89-26.12-20.52h11.76c0,6.16,5.74,10.95,15.04,10.95,6.97,0,11.62-3.42,11.62-9.03,0-4.25-1.91-7.12-9.44-9.04l-12.86-3.28c-9.3-2.6-14.22-8.62-14.22-17.38,0-10.67,9.85-18.06,23.52-18.06,15.04,0,24.21,7.25,24.21,19.02h-11.62c0-6.02-4.79-9.85-12.99-9.85-6.57,0-11.35,3.15-11.35,8.35,0,3.96,2.33,6.84,9.16,8.75l12.99,3.56c9.3,2.6,14.63,8.76,14.63,17.52,0,12.04-9.44,19.01-24.34,19.01Z"/>
  <path class="cls-2" d="M674.12,411.67c-5.74,0-9.71-4.24-9.71-9.58s3.97-9.72,9.71-9.72,9.57,4.38,9.57,9.72-3.97,9.58-9.57,9.58ZM680,485.56h-11.76v-63.08h11.76v63.08Z"/>
  <path class="cls-2" d="M705.62,485.56h-11.9v-63.08h11.9v11.63c3.42-8.07,11.08-13.27,22.02-13.27,15.45,0,23.39,9.03,23.39,25.86v38.86h-11.76v-33.66c0-14.1-4.65-20.8-15.86-20.8s-17.78,8.34-17.78,21.07v33.39Z"/>
  <path class="cls-2" d="M788.74,475.71c2.33,0,6.15-.42,7.93-.83v10.54c-2.33.55-6.57.96-10.67.96-7.39,0-19.28-1.37-19.28-21.76v-32.15h-11.35v-9.99h11.35v-19.98h11.9v19.98h15.86v9.99h-15.86v29.55c0,12.04,4.1,13.69,10.12,13.69Z"/>
  <path class="cls-2" d="M859.26,450.53c0,2.32,0,4.1-.27,6.98h-48.83c.27,12.17,7.8,19.29,19.83,19.29,8.34,0,14.09-3.28,16.68-9.3h11.9c-2.19,11.63-13.81,19.7-28.58,19.7-19.42,0-31.59-12.86-31.59-33.25s12.31-33.11,31.04-33.11,29.81,12.31,29.81,29.69ZM810.16,448.34h37.47c0-11.08-6.84-17.93-18.33-17.93s-18.6,7.26-19.15,17.93Z"/>
  <path class="cls-2" d="M879.84,485.56h-11.9v-63.08h11.9v14.36c2.46-10.67,10.53-15.32,18.46-15.32,2.19,0,4.24.14,5.74.55v10.94c-2.05-.41-3.69-.41-5.88-.41-12.45,0-18.33,11.36-18.33,25.45v27.51Z"/>
  <path class="cls-2" d="M916.26,411.67c-5.74,0-9.71-4.24-9.71-9.58s3.97-9.72,9.71-9.72,9.57,4.38,9.57,9.72-3.97,9.58-9.57,9.58ZM922.14,485.56h-11.76v-63.08h11.76v63.08Z"/>
  <path class="cls-2" d="M963.63,487.2c-20.51,0-32.82-14.78-32.82-33.11s12.31-33.25,32.82-33.25,32.82,14.77,32.82,33.25-12.45,33.11-32.82,33.11ZM963.63,476.53c13.27,0,20.93-9.86,20.93-22.44s-7.66-22.58-20.93-22.58-21.06,9.85-21.06,22.58,7.79,22.44,21.06,22.44Z"/>
  <path class="cls-2" d="M1016.79,485.56h-11.9v-63.08h11.9v14.36c2.46-10.67,10.53-15.32,18.46-15.32,2.19,0,4.24.14,5.74.55v10.94c-2.05-.41-3.69-.41-5.88-.41-12.45,0-18.33,11.36-18.33,25.45v27.51Z"/>
  <path class="cls-2" d="M1099.16,485.56h-9.98l-23.25-63.08h12.99l15.04,46.11,15.45-46.11h12.72l15.32,46.11,15.18-46.11h12.99l-23.25,63.08h-10.12l-16.55-48.44-16.55,48.44Z"/>
  <path class="cls-2" d="M1194.98,487.2c-20.52,0-32.82-14.78-32.82-33.11s12.31-33.25,32.82-33.25,32.82,14.77,32.82,33.25-12.45,33.11-32.82,33.11ZM1194.98,476.53c13.27,0,20.92-9.86,20.92-22.44s-7.66-22.58-20.92-22.58-21.06,9.85-21.06,22.58,7.8,22.44,21.06,22.44Z"/>
  <path class="cls-2" d="M1248.13,485.56h-11.9v-63.08h11.9v14.36c2.46-10.67,10.53-15.32,18.46-15.32,2.19,0,4.24.14,5.74.55v10.94c-2.05-.41-3.69-.41-5.88-.41-12.45,0-18.33,11.36-18.33,25.45v27.51Z"/>
  <path class="cls-2" d="M1318.48,422.48h15.18l-30.49,30.51,30.49,32.57h-15.59l-27.63-29.83v29.83h-11.76v-95.79h11.76v61.72l28.04-29.01Z"/>
  <path class="cls-2" d="M1357.27,487.2c-15.45,0-26.12-8.89-26.12-20.53h11.76c0,6.16,5.75,10.95,15.05,10.95,6.97,0,11.62-3.42,11.62-9.03,0-4.24-1.91-7.12-9.44-9.03l-12.85-3.28c-9.3-2.6-14.22-8.63-14.22-17.38,0-10.68,9.84-18.06,23.52-18.06,15.04,0,24.21,7.25,24.21,19.02h-11.63c0-6.03-4.79-9.86-12.99-9.86-6.57,0-11.35,3.15-11.35,8.35,0,3.97,2.32,6.84,9.16,8.76l12.99,3.56c9.3,2.59,14.64,8.75,14.64,17.51,0,12.04-9.44,19.02-24.35,19.02Z"/>
  <path class="cls-3" d="M487.85,491.72c2.28,2.3,5.38,3.59,8.61,3.59h68.12c4.93,0,7.77-5.57,4.73-9.47-72.79-93.45-188.39-115.74-243.8-115.25-3.26.03-5.81,2.72-5.81,5.98v112.66c0,3.36,2.72,6.08,6.07,6.08h54.73c3.35,0,6.07-2.72,6.07-6.08v-84.99c0-5.43,6.56-8.14,10.37-4.29l90.9,91.77Z"/>
  <path class="cls-3" d="M408.23,266.4c-2.28-2.3-5.38-3.59-8.61-3.59h-68.12c-4.93,0-7.77,5.57-4.73,9.47,72.79,93.44,188.39,115.73,243.8,115.25,3.26-.03,5.81-2.72,5.81-5.98v-112.66c0-3.36-2.72-6.08-6.07-6.08h-54.73c-3.35,0-6.07,2.72-6.07,6.08v84.99c0,5.43-6.56,8.14-10.38,4.29l-90.9-91.77Z"/>
  <path class="cls-3" d="M487.04,491.72c2.28,2.3,5.38,3.59,8.61,3.59h68.12c4.93,0,7.77-5.57,4.73-9.47-72.79-93.45-188.39-115.74-243.8-115.25-3.26.03-5.81,2.72-5.81,5.98v112.66c0,3.36,2.72,6.08,6.07,6.08h54.73c3.35,0,6.07-2.72,6.07-6.08v-84.99c0-5.43,6.56-8.14,10.37-4.29l90.9,91.77Z"/>
  <path class="cls-1" d="M408.23,266.01c-2.28-2.3-5.38-3.59-8.61-3.59h-68.12c-4.93,0-7.77,5.57-4.73,9.47,72.79,93.45,188.39,115.74,243.8,115.25,3.26-.03,5.81-2.72,5.81-5.98v-112.65c0-3.37-2.72-6.09-6.07-6.09h-54.73c-3.35,0-6.07,2.72-6.07,6.09v84.98c0,5.43-6.56,8.14-10.38,4.29l-90.9-91.77Z"/>
</svg>