<?xml version="1.0" encoding="UTF-8"?>
<svg id="Layer_1" data-name="Layer 1" xmlns="http://www.w3.org/2000/svg" viewBox="0 0 1000 1000">
  <defs>
    <style>
      .cls-1 {
        fill: #00947d;
      }

      .cls-2 {
        fill: #4e5359;
      }
    </style>
  </defs>
  <path class="cls-1" d="M411.97,548.18c-63-43.55-61.53-58.23,2.6-98.12,24.12-13.52,38.11-10.69,51.3-10.8,1.41-.01,2.58,1.13,2.56,2.54-.05,10.48.2,20.89.04,37.97-.01.65-.32,1.12-.97,1.11-.07,0-.12,0-.19,0-1.02-.85-2.13-1.63-3.33-2.33-11.64-6.75-26.54-2.71-33.27,9.03-6.75,11.74-2.78,26.73,8.86,33.49,8.97,5.21,19.88,3.99,27.5-2.22.67.02,1.23.57,1.23,1.27-.12,14.59.2,19.28.04,37.68-.01,1.28-.99,2.35-2.27,2.41-10.38.45-36.82-.08-54.12-12.04Z"/>
  <path class="cls-1" d="M590.82,555.4c-5.88,76.64-19.26,82.71-85.76,46.95-23.73-14.19-28.31-27.78-35.02-39.2-.71-1.22-.32-2.81.9-3.51,9.05-5.21,17.88-10.64,32.67-19.07.56-.32,1.11-.28,1.44.28.03.05.05.1.08.16-.21,1.32-.34,2.68-.34,4.07.03,13.51,10.98,24.44,24.47,24.41,13.48-.02,24.39-10.99,24.38-24.5-.03-10.41-6.54-19.3-15.7-22.81-.32-.6-.13-1.37.47-1.72,12.62-7.21,16.5-9.84,32.42-18.93,1.11-.63,2.52-.32,3.21.76,5.6,8.79,18.4,32.05,16.79,53.11Z"/>
  <path class="cls-1" d="M590.93,444.42c-5.99-76.63-19.36-82.69-85.81-46.82-23.7,14.22-28.27,27.82-34.97,39.25-.71,1.22-.31,2.81.91,3.51,9.05,5.2,17.89,10.62,32.68,19.02.56.32,1.13.28,1.44-.28.03-.05.05-.1.08-.16-.21-1.32-.34-2.68-.34-4.07,0-13.51,10.94-24.45,24.43-24.45,13.49,0,24.42,10.96,24.42,24.47-.01,10.41-6.51,19.31-15.68,22.83-.32.6-.12,1.37.48,1.72,12.63,7.19,16.51,9.82,32.43,18.89,1.11.63,2.52.32,3.22-.77,5.57-8.8,18.35-32.08,16.7-53.13Z"/>
  <path class="cls-2" d="M294.17,425.86l-27.15-9.91-3.37,9.22-2.16-.79,7.66-21,2.16.79-3.36,9.22,27.14,9.91-.93,2.56ZM299.64,412.13l-27.92-13.94,1.19-2.4,12.35,6.16,8-16.03-12.35-6.16,1.19-2.4,27.93,13.94-1.21,2.4-13.46-6.72-8,16.03,13.46,6.72-1.19,2.4ZM313.06,386.25l-26.08-17.14,9.56-14.53,1.8,1.31-8.03,12.2,9.83,6.45,7.62-11.6,1.91,1.26-7.62,11.6,10.62,6.98,8.27-12.58,1.76,1.43-9.62,14.63ZM335.7,355.52l-22.74-21.38,11.92-12.66,1.54,1.6-10,10.63,8.56,8.05,9.5-10.12,1.66,1.57-9.5,10.11,9.25,8.71,10.32-10.97,1.48,1.7-12,12.76ZM356.75,334.84l-28.87-16.32,2.25-1.94,18.5,10.62c.81.51,1.65,1.02,2.55,1.54.89.5,1.69.97,2.39,1.4.7.43,1.5.96,2.39,1.59-.25-.44-.5-.95-.75-1.51-.23-.57-.6-1.49-1.11-2.75-.51-1.28-1.02-2.54-1.56-3.8-1.34-3.12-2.66-6.51-3.93-10.17-1.29-3.66-2.51-6.87-3.69-9.64l2.3-1.97,11.73,31.08-2.19,1.87ZM369.3,324.56l-17.81-25.62,14.27-9.93,1.18,1.88-11.97,8.33,6.7,9.64,11.4-7.93,1.32,1.88-11.41,7.93,7.26,10.43,12.36-8.6,1.1,1.97-14.39,10ZM387.78,312.26l-14.63-27.56,2.77-1.47,27.5,15.19,1.7.83c-2.11-3.76-3.41-6.1-3.89-7.03l-9.3-17.5,2.24-1.19,14.64,27.56-2.82,1.49-27.46-15.18-1.66-.85c1.58,2.73,2.9,5.1,3.97,7.11l9.22,17.38-2.28,1.21ZM419.96,296.47l-10.54-26.91-9.14,3.58-.85-2.15,20.82-8.15.85,2.15-9.14,3.58,10.54,26.91-2.54.99ZM459.19,285.77c-2.59.51-4.94.68-7.03.52-2.11-.16-3.76-.46-4.99-.91l.63-2.07c3.19,1,6.93,1.08,11.19.25,2.35-.46,4.04-1.42,5.06-2.89,1.03-1.47,1.34-3.32.91-5.54-.16-.82-.38-1.5-.63-2.03-.27-.53-.66-1.01-1.17-1.44-.51-.44-1.19-.76-2.05-.94-.86-.2-1.92-.31-3.18-.32l-5.14-.02c-2.86-.01-5.1-.47-6.72-1.38-1.6-.91-2.62-2.46-3.03-4.64-.28-1.41-.24-2.69.11-3.82.35-1.15.97-2.13,1.88-2.95.93-.82,2.04-1.51,3.34-2.06,1.3-.57,2.83-1.02,4.58-1.36,1.73-.34,3.46-.45,5.19-.35,1.74.1,3.19.32,4.35.65l-.28,2.15c-.9-.3-2.19-.49-3.85-.57-1.66-.1-3.34,0-5.03.34-2.9.56-4.98,1.48-6.24,2.73-1.28,1.24-1.7,2.91-1.3,5,.25,1.3.93,2.26,2,2.88,1.07.6,2.55.92,4.42.96l5.73.06c1.44.02,2.66.14,3.69.35,1.03.21,1.97.56,2.83,1.05.86.49,1.56,1.17,2.11,2.05.54.86.93,1.94,1.18,3.23.56,2.88.05,5.3-1.53,7.26-1.57,1.96-3.91,3.24-7.01,3.84ZM479.48,282.35l-2.64-28.78-9.77.9-.21-2.3,22.27-2.04.2,2.3-9.77.9,2.64,28.78-2.71.25ZM505.07,282.13c-2.01-.04-3.76-.35-5.22-.93-1.48-.58-2.64-1.38-3.5-2.42-.86-1.04-1.48-2.23-1.88-3.58-.39-1.36-.56-2.91-.52-4.63l.42-20.36,2.68.06-.43,20.78c-.07,2.98.63,5.2,2.07,6.67,1.44,1.46,3.64,2.21,6.6,2.28,5.81.12,8.78-2.75,8.9-8.61l.43-20.76,2.68.06-.42,20.4c-.04,1.37-.2,2.62-.51,3.74-.28,1.13-.72,2.15-1.34,3.08-.6.92-1.36,1.71-2.27,2.34-.91.62-2.01,1.11-3.32,1.44-1.3.32-2.75.47-4.38.43ZM524.97,280.68l6.05.92c4.28.65,7.72.06,10.28-1.79,2.59-1.86,4.21-4.95,4.87-9.29.36-2.38.35-4.48-.01-6.3-.36-1.82-1.07-3.34-2.13-4.57-1.06-1.24-2.38-2.22-3.96-2.96-1.58-.75-3.46-1.29-5.62-1.62l-5.46-.83-4.01,26.44ZM521.98,282.5l4.68-30.85,8.36,1.27c2.51.38,4.71,1.02,6.6,1.92,1.89.9,3.49,2.07,4.77,3.53,1.28,1.44,2.16,3.22,2.64,5.34.48,2.11.52,4.5.12,7.17-.76,5.05-2.74,8.66-5.92,10.85-3.17,2.19-7.26,2.9-12.27,2.14l-8.99-1.37ZM551.47,287.35l7.42-30.31,2.6.64-7.41,30.31-2.62-.64ZM573.05,292.54c2.43.85,4.66,1,6.7.47,2.05-.53,3.8-1.62,5.23-3.28,1.45-1.67,2.64-3.84,3.57-6.5,1.46-4.17,1.66-7.72.6-10.65-1.05-2.93-3.37-5.02-6.94-6.26-3.61-1.26-6.75-1.07-9.44.55-2.67,1.62-4.72,4.52-6.19,8.7-1.41,4.05-1.6,7.58-.55,10.58,1.05,3,3.38,5.14,7.01,6.4ZM572.33,294.62c-2.24-.78-4.12-1.85-5.64-3.21-1.49-1.36-2.58-2.92-3.23-4.66-.66-1.75-.95-3.65-.9-5.71.07-2.05.48-4.19,1.26-6.42,1.62-4.67,4.12-7.97,7.48-9.87,3.38-1.9,7.26-2.09,11.66-.56,4.31,1.5,7.19,4.06,8.64,7.68,1.46,3.6,1.37,7.73-.24,12.37-.77,2.18-1.76,4.09-2.99,5.73-1.24,1.63-2.66,2.92-4.27,3.89-1.6.97-3.41,1.53-5.44,1.68-2.01.15-4.13-.15-6.34-.92ZM604.66,308.08l16.04-26.77,7.3,4.38c3.33,1.99,5.41,4,6.28,6.01.87,2.02.63,4.16-.72,6.42-.16.26-.28.46-.38.58-.08.13-.25.38-.54.75-.28.35-.55.63-.82.83-.25.21-.6.44-1.06.71-.44.25-.91.43-1.4.53-.47.11-1.05.16-1.72.17-.66,0-1.37-.1-2.11-.28,1.7,1.4,2.7,3.01,2.95,4.83.27,1.82-.11,3.56-1.1,5.23-1.42,2.36-3.28,3.76-5.57,4.19-2.3.43-5.01-.28-8.11-2.14l-9.06-5.44ZM608.03,307.67l6.17,3.7c4.86,2.91,8.43,2.45,10.72-1.37,1.25-2.07,1.44-3.92.58-5.52-.86-1.62-2.71-3.29-5.58-5.01l-5.13-3.07-6.76,11.28ZM615.86,294.62l6.13,3.68c.94.57,1.8.98,2.58,1.25.76.27,1.53.38,2.31.36.78-.03,1.52-.3,2.19-.81.7-.51,1.36-1.27,1.96-2.28,1.11-1.87,1.32-3.51.58-4.93-.71-1.42-2.32-2.88-4.82-4.39l-4.9-2.93-6.03,10.06ZM631.04,325.24l7.48-9.84,3.11-21.31,2.32,1.76-2.77,18.58,17.4-7.47,2.35,1.79-20.19,8.24-7.52,9.91-2.19-1.66ZM661.6,353.89c-1.78-1.95-3.15-3.86-4.11-5.73-.97-1.87-1.57-3.45-1.84-4.73l2.09-.55c.82,3.25,2.7,6.48,5.64,9.69,1.61,1.76,3.32,2.7,5.1,2.8,1.8.12,3.53-.59,5.19-2.12.62-.57,1.09-1.1,1.41-1.6s.52-1.08.63-1.74c.11-.67.01-1.42-.28-2.25-.27-.83-.72-1.79-1.38-2.88l-2.66-4.39c-1.49-2.45-2.27-4.6-2.34-6.45-.07-1.84.72-3.52,2.36-5.02,1.06-.97,2.17-1.61,3.33-1.9,1.15-.31,2.32-.28,3.49.06,1.18.36,2.35.95,3.5,1.77,1.17.82,2.36,1.89,3.56,3.2,1.19,1.3,2.2,2.71,3.01,4.24.83,1.54,1.4,2.89,1.73,4.05l-1.99.88c-.21-.92-.72-2.11-1.52-3.58-.78-1.47-1.76-2.84-2.93-4.12-2-2.17-3.87-3.47-5.6-3.89-1.72-.43-3.37.07-4.93,1.51-.98.9-1.45,1.97-1.42,3.21.05,1.23.55,2.65,1.49,4.26l2.95,4.92c.72,1.23,1.28,2.34,1.62,3.32.36,1,.55,1.98.58,2.97.04.99-.17,1.95-.63,2.87-.46.91-1.17,1.81-2.15,2.7-2.16,1.99-4.5,2.81-6.99,2.49-2.48-.32-4.81-1.64-6.94-3.97ZM677.3,373.6c-1.17-1.64-1.97-3.21-2.39-4.74-.42-1.52-.47-2.94-.16-4.25.32-1.31.9-2.53,1.74-3.65.86-1.13,1.99-2.2,3.38-3.2l16.54-11.88,1.57,2.18-16.89,12.12c-2.42,1.74-3.78,3.62-4.09,5.65-.31,2.02.4,4.24,2.13,6.65,3.4,4.72,7.46,5.38,12.23,1.96l16.87-12.11,1.56,2.18-16.58,11.9c-1.11.8-2.2,1.42-3.29,1.85-1.07.44-2.16.7-3.28.77-1.1.07-2.17-.07-3.24-.41-1.05-.35-2.09-.95-3.14-1.79-1.03-.84-2.03-1.92-2.98-3.24ZM691.6,396.3c-1.28-2.31-2.16-4.49-2.64-6.54-.5-2.05-.71-3.72-.67-5.02l2.16-.04c.03,3.35,1.1,6.93,3.19,10.74,1.15,2.09,2.59,3.4,4.3,3.93,1.72.54,3.57.26,5.56-.83.74-.4,1.32-.81,1.74-1.22.43-.41.77-.93,1.02-1.54.26-.62.35-1.37.26-2.25-.07-.87-.28-1.92-.67-3.13l-1.54-4.89c-.87-2.73-1.11-5.01-.74-6.82.38-1.8,1.53-3.24,3.48-4.32,1.26-.7,2.5-1.05,3.68-1.07,1.19-.02,2.34.27,3.38.89,1.07.63,2.07,1.48,2.99,2.55.94,1.08,1.84,2.39,2.7,3.94.85,1.54,1.49,3.15,1.92,4.83.44,1.69.68,3.14.72,4.34l-2.13.39c0-.94-.2-2.23-.63-3.84-.42-1.61-1.03-3.17-1.88-4.69-1.42-2.58-2.93-4.28-4.51-5.1-1.57-.82-3.29-.72-5.15.3-1.15.64-1.87,1.57-2.12,2.78-.25,1.21-.11,2.7.44,4.5l1.7,5.48c.42,1.37.68,2.57.79,3.61.12,1.05.07,2.06-.13,3.02-.2.97-.63,1.85-1.3,2.63-.66.78-1.56,1.48-2.71,2.12-2.58,1.42-5.03,1.67-7.38.77-2.35-.89-4.28-2.72-5.81-5.49ZM698.58,408.93l28.98-11.57.99,2.49-12.81,5.12,6.63,16.63,12.82-5.12.99,2.49-28.98,11.57-.99-2.49,13.99-5.58-6.64-16.63-13.99,5.58-.99-2.49ZM717.77,501.27c-.01-2.64.27-4.98.82-7.01.56-2.03,1.18-3.6,1.84-4.72l1.92,1.01c-1.6,2.95-2.39,6.6-2.38,10.95,0,2.39.62,4.23,1.87,5.51,1.25,1.3,3.01,1.95,5.27,1.94.83,0,1.54-.08,2.11-.23.58-.15,1.13-.44,1.64-.86.54-.42.98-1.04,1.32-1.85.36-.8.67-1.82.93-3.06l.99-5.03c.56-2.81,1.44-4.92,2.64-6.34,1.19-1.4,2.91-2.1,5.13-2.1,1.45,0,2.68.28,3.74.83,1.06.56,1.91,1.36,2.54,2.41.63,1.06,1.09,2.28,1.38,3.67.31,1.4.47,2.99.47,4.76s-.21,3.48-.64,5.16c-.43,1.69-.91,3.08-1.46,4.15l-2.05-.69c.46-.83.89-2.05,1.3-3.67.42-1.61.62-3.28.62-5.01,0-2.95-.51-5.16-1.5-6.65-.98-1.48-2.52-2.22-4.66-2.22-1.33,0-2.39.47-3.21,1.41-.79.94-1.38,2.32-1.77,4.16l-1.14,5.62c-.3,1.4-.64,2.58-1.05,3.55-.4.98-.93,1.84-1.57,2.58-.64.76-1.45,1.32-2.42,1.68-.95.37-2.08.55-3.4.55-2.94,0-5.21-.96-6.83-2.89-1.62-1.91-2.44-4.45-2.44-7.61ZM717.87,515.71l31.03,3.25-1.81,17.29-2.2-.34,1.53-14.52-11.69-1.23-1.44,13.81-2.28-.24,1.45-13.81-12.64-1.32-1.57,14.98-2.2-.46,1.83-17.42ZM715.92,534.14l27.93,18.5-.55,2.52-32.98,4.89.58-2.71,11.19-1.66,2.74-12.65-9.48-6.3.56-2.6ZM726.54,544.46l-2.31,10.7c9.49-1.17,15.06-1.79,16.71-1.86-.56-.29-2.05-1.18-4.44-2.66-2.4-1.48-4.66-2.88-6.78-4.21l-3.18-1.97ZM709.34,562.06l29.27,10.81-1.32,3.54-28.72,1.71,20.83,19.67-1.25,3.4-29.27-10.8.91-2.5,19.7,7.27,6.59,2.59-2.09-1.6-18.75-17.86,1.01-2.75,25.97-1.48,2.64.1-6.86-2.37-19.6-7.23.93-2.5ZM696.4,595.71l27.68,14.41-1.25,2.4-25.57-13.32-6.48,12.44-2.04-1.21,7.66-14.73ZM687.22,612.56l26.17,16.99-9.46,14.58-1.81-1.3,7.95-12.24-9.85-6.39-7.56,11.65-1.92-1.25,7.56-11.65-10.66-6.92-8.2,12.63-1.76-1.41,9.54-14.69ZM668.14,638.41c1.66-2.05,3.36-3.69,5.06-4.91,1.72-1.22,3.18-2.06,4.4-2.5l.85,1.98c-3.09,1.29-6.01,3.62-8.75,7-1.5,1.86-2.17,3.68-2.01,5.46.15,1.79,1.1,3.4,2.86,4.83.64.53,1.25.91,1.78,1.16.55.24,1.15.36,1.81.36.68,0,1.41-.19,2.19-.6.79-.39,1.66-.99,2.64-1.8l3.96-3.28c2.2-1.83,4.21-2.92,6.04-3.26,1.81-.33,3.58.21,5.32,1.61,1.11.91,1.91,1.91,2.36,3,.48,1.1.63,2.26.46,3.47-.17,1.22-.59,2.46-1.24,3.72-.64,1.28-1.52,2.61-2.64,3.99-1.1,1.37-2.36,2.57-3.74,3.6-1.41,1.04-2.66,1.81-3.76,2.3l-1.17-1.83c.89-.35,1.99-1.03,3.33-2.03,1.34-.99,2.55-2.15,3.64-3.5,1.87-2.29,2.87-4.33,3.03-6.1.17-1.77-.56-3.32-2.21-4.66-1.03-.84-2.16-1.15-3.38-.93-1.21.23-2.54.93-4,2.1l-4.43,3.64c-1.11.9-2.12,1.6-3.05,2.09-.93.51-1.88.84-2.85,1.01-.98.18-1.96.11-2.93-.21-.98-.32-1.97-.89-2.99-1.72-2.28-1.85-3.44-4.03-3.49-6.55-.05-2.51.93-4.99,2.91-7.45ZM640.54,666.75c1.15-1,2.32-1.42,3.49-1.26,1.18.16,2.16.7,2.95,1.62.78.89,1.17,1.93,1.17,3.12s-.58,2.28-1.73,3.28c-1.19,1.04-2.39,1.48-3.56,1.31-1.18-.16-2.15-.69-2.93-1.59-.79-.91-1.19-1.96-1.19-3.15s.6-2.3,1.8-3.34ZM607.83,689.3c2.05-1.23,4.09-1.98,6.11-2.24,2.04-.26,3.93-.06,5.7.57,1.76.64,3.4,1.65,4.93,3.01,1.53,1.37,2.89,3.06,4.08,5.06,1.6,2.66,2.52,5.31,2.78,7.94.26,2.65-.24,5.16-1.46,7.52-1.22,2.36-3.17,4.34-5.81,5.92-2.91,1.74-5.77,2.62-8.55,2.62l.03-2.44c2.55,0,5.01-.69,7.36-2.1,1.64-.98,2.93-2.18,3.87-3.59.94-1.39,1.5-2.89,1.69-4.48.17-1.59.05-3.23-.36-4.94-.43-1.7-1.15-3.39-2.16-5.07-.98-1.64-2.09-3.05-3.33-4.21-1.23-1.15-2.59-2.03-4.05-2.65-1.48-.6-3.07-.82-4.79-.65-1.72.18-3.45.79-5.21,1.84-1.88,1.13-3.66,2.91-5.36,5.34l-1.58-1.57c1.1-2.14,3.14-4.1,6.13-5.89ZM597.57,695.48l12.76,28.48-8.12,3.64c-1.03.46-1.93.84-2.7,1.14-.79.3-1.6.57-2.44.8-.86.23-1.6.35-2.24.38-.66.05-1.32,0-1.97-.13-.67-.13-1.28-.38-1.81-.75-.52-.36-1.03-.85-1.5-1.48-.5-.62-.94-1.38-1.34-2.27-.79-1.75-1.03-3.44-.74-5.07.3-1.63,1.22-3.07,2.78-4.3-1.46-1.23-2.58-2.16-3.33-2.81l-9.46-8.6,2.86-1.28,8.38,7.94c.56.52,1.77,1.63,3.65,3.33.24-.15,1.18-.59,2.82-1.33l6.2-2.65-6.24-13.93,2.46-1.1ZM595.01,715.66c-2.54,1.14-4.12,2.37-4.72,3.71-.62,1.34-.5,2.94.32,4.79.75,1.66,1.79,2.72,3.09,3.19,1.32.49,3.06.24,5.26-.74l8.01-3.6-4.72-10.52c-3.01,1.31-5.42,2.37-7.23,3.18ZM573.47,705.82l9.53,29.72-16.56,5.31-.58-2.15,13.91-4.45-3.58-11.18-13.22,4.24-.7-2.18,13.22-4.24-3.88-12.1-14.35,4.59-.46-2.21,16.67-5.34ZM555.82,711.46l-5.64,33.02-2.52.52-17.8-28.2,2.71-.56,6.04,9.57,12.67-2.61,1.93-11.21,2.6-.54ZM550.68,725.35l-10.72,2.21c4.9,8.21,7.72,13.06,8.46,14.53.04-.64.24-2.35.63-5.14.38-2.79.75-5.42,1.11-7.9l.52-3.7ZM522.23,717.32l2.87,28.76,9.77-.98.23,2.3-22.24,2.23-.23-2.3,9.76-.98-2.87-28.76,2.71-.27ZM507.25,718.54l.93,31.19-2.67.08-.94-31.19,2.68-.08ZM491.12,718.22l9.93,31.65-2.98-.12-6.24-20.39c-.24-.92-.51-1.88-.81-2.87-.31-.98-.58-1.86-.79-2.66-.21-.79-.44-1.72-.66-2.8-.12.5-.28,1.04-.48,1.62-.23.58-.58,1.5-1.06,2.77-.51,1.28-.99,2.56-1.46,3.84-1.15,3.2-2.52,6.57-4.08,10.11-1.56,3.55-2.86,6.73-3.91,9.56l-3.02-.13,12.68-30.7,2.87.12ZM474.93,717.15l-4.55,30.87-17.19-2.53.43-2.18,14.44,2.12,1.7-11.62-13.73-2.02.32-2.26,13.74,2.02,1.85-12.57-14.9-2.19.55-2.19,17.33,2.55ZM428.84,706.38c1.45.48,2.4,1.26,2.87,2.35.46,1.09.5,2.21.12,3.36-.36,1.12-1.06,1.99-2.08,2.6-1.02.61-2.25.67-3.7.19-1.5-.49-2.5-1.29-2.95-2.38-.46-1.09-.51-2.2-.13-3.32.38-1.15,1.07-2.03,2.09-2.64s2.28-.66,3.79-.17ZM404.2,696.44l-15.48,27.1-3.28-1.87,3.03-28.62-22.83,17.32-3.15-1.8,15.48-27.1,2.31,1.32-10.42,18.23-3.64,6.08,1.92-1.8,20.7-15.57,2.55,1.46-2.81,25.86-.54,2.59,3.48-6.37,10.35-18.14,2.32,1.32ZM373.14,678.13l-18.94,24.8-13.81-10.55,1.44-1.7,11.6,8.86,7.13-9.33-11.03-8.43,1.38-1.82,11.03,8.43,7.72-10.1-11.97-9.14,1.56-1.64,13.91,10.63ZM355.81,664.27l-22.04,22.08-2.67-2.67,10.44-26.82-26.58,10.71-2.58-2.56,22.05-22.08,1.89,1.88-14.83,14.86-5.11,4.91,2.32-1.23,24.07-9.58,2.07,2.08-9.5,24.21-1.19,2.36,5.02-5.24,14.76-14.78,1.88,1.88ZM321.53,628.68c-1.52-2.08-3.26-3.48-5.25-4.2-1.99-.73-4.04-.82-6.17-.27-2.15.54-4.35,1.65-6.63,3.31-3.57,2.6-5.76,5.41-6.56,8.42-.79,3.01-.08,6.04,2.15,9.1,2.25,3.08,4.94,4.72,8.08,4.91,3.11.19,6.46-1.03,10.04-3.64,3.46-2.53,5.62-5.32,6.47-8.39.85-3.07.13-6.15-2.12-9.25ZM323.3,627.38c1.41,1.92,2.34,3.87,2.82,5.84.44,1.97.46,3.86.01,5.68-.47,1.81-1.3,3.54-2.52,5.21-1.21,1.65-2.78,3.17-4.68,4.56-4,2.92-7.92,4.2-11.77,3.86-3.85-.35-7.15-2.41-9.91-6.17-2.7-3.69-3.61-7.44-2.74-11.24.85-3.79,3.26-7.13,7.23-10.03,1.87-1.36,3.77-2.36,5.73-3.01,1.93-.64,3.84-.89,5.72-.77,1.87.11,3.66.68,5.42,1.7,1.74,1.03,3.32,2.48,4.68,4.37ZM312.08,611.95l-27.45,14.86-4.23-7.82c-.54-1-.99-1.87-1.34-2.61-.36-.76-.68-1.55-.98-2.38-.3-.83-.47-1.57-.55-2.21-.09-.65-.11-1.3-.01-1.97.08-.68.28-1.3.62-1.86.31-.55.77-1.1,1.36-1.62.59-.54,1.3-1.04,2.17-1.51,1.68-.91,3.34-1.28,4.99-1.11,1.65.17,3.15.99,4.51,2.45,1.1-1.56,1.96-2.73,2.55-3.53l7.87-10.08,1.49,2.75-7.29,8.96c-.48.59-1.49,1.89-3.05,3.89.17.23.68,1.12,1.53,2.7l3.1,6,13.44-7.27,1.28,2.36ZM291.77,610.9c-1.33-2.45-2.68-3.93-4.05-4.44-1.38-.5-2.97-.28-4.75.69-1.6.87-2.59,1.97-2.95,3.32-.39,1.34-.01,3.07,1.14,5.18l4.17,7.73,10.15-5.49c-1.53-2.91-2.76-5.24-3.7-6.98ZM301.35,592.11l-33.5.21-.95-2.4,24.66-22.45,1.02,2.57-8.36,7.62,4.78,12.02,11.38-.06.98,2.48ZM286.78,589.47l-4.04-10.17c-7.23,6.26-11.5,9.88-12.83,10.86.63-.07,2.35-.16,5.17-.27,2.82-.11,5.48-.21,7.97-.28l3.73-.13ZM291.15,565.29l-30.13,8.13-2.21-8.22c-1.01-3.74-1.13-6.63-.35-8.68.78-2.06,2.44-3.44,4.98-4.12.3-.08.51-.13.67-.16.15-.04.46-.09.91-.16.44-.06.83-.07,1.17-.03.32.03.74.1,1.25.23.5.13.95.32,1.37.59.42.25.87.61,1.36,1.07.48.47.91,1.02,1.33,1.66-.27-2.19.15-4.03,1.22-5.52,1.07-1.49,2.55-2.49,4.42-3,2.67-.72,4.97-.44,6.93.85,1.96,1.28,3.41,3.67,4.35,7.17l2.75,10.21ZM288.43,563.24l-1.88-6.94c-1.48-5.47-4.36-7.62-8.67-6.46-2.34.63-3.74,1.82-4.24,3.58-.51,1.76-.34,4.25.54,7.48l1.56,5.77,12.7-3.43ZM273.74,567.2l-1.85-6.9c-.3-1.07-.62-1.96-.99-2.69-.36-.73-.85-1.34-1.41-1.86-.59-.52-1.3-.83-2.15-.94-.86-.12-1.85-.02-2.98.28-2.11.57-3.4,1.62-3.85,3.14-.47,1.52-.32,3.69.43,6.51l1.49,5.51,11.32-3.06ZM285.06,541.24l-30.79,5.04-.44-2.67,28.47-4.65-2.27-13.85,2.36-.26,2.67,16.39ZM282.32,522.25l-31.14,2.12-1.18-17.35,2.23-.05.99,14.56,11.72-.8-.94-13.85,2.28-.16.94,13.85,12.68-.86-1.03-15.02,2.25.08,1.19,17.47Z"/>
</svg>