<?xml version="1.0" encoding="UTF-8"?>
<svg id="Layer_1" data-name="Layer 1" xmlns="http://www.w3.org/2000/svg" viewBox="0 0 1000 1000">
  <defs>
    <style>
      .cls-1 {
        fill: #4e5359;
      }

      .cls-2 {
        fill: #b99525;
      }
    </style>
  </defs>
  <path class="cls-1" d="M412.85,364.01v-81.63h-27.71v-6.52h63.13v6.52h-27.71v81.63h-7.71ZM454.68,364.01v-88.15h7.58v38.98h50.58v-38.98h7.58v88.15h-7.58v-42.53h-50.58v42.53h-7.58ZM537.13,364.01v-88.15h49.11l-.28,6.28h-41.25v33.17h39.23v6.46h-39.23v35.9h42.55l-.65,6.34h-49.48ZM329.98,485.33v-88.15h49.11l-.3,6.28h-41.23v33.17h39.21v6.46h-39.21v35.9h42.53l-.65,6.34h-49.46ZM413.45,485.33l-31.76-88.15h8.41l20.04,56.81c.78,2.57,1.65,5.23,2.6,8,.98,2.72,1.84,5.19,2.54,7.4.71,2.21,1.45,4.82,2.21,7.82.26-1.42.67-2.96,1.17-4.62.56-1.66,1.45-4.3,2.66-7.94,1.28-3.67,2.49-7.35,3.68-11.02,2.88-9.16,6.33-18.84,10.31-29.03,3.99-10.19,7.28-19.33,9.88-27.43h8.54l-32.17,88.15h-8.1ZM459.36,485.33v-88.15h49.11l-.3,6.28h-41.23v33.17h39.21v6.46h-39.21v35.9h42.53l-.65,6.34h-49.46ZM522.16,485.33v-88.15h8.82l48.53,74.34,3.12,4.32c-.26-12.16-.41-19.72-.41-22.69v-55.98h7.17v88.15h-8.99l-48.4-74.22-3.03-4.32c.32,8.89.48,16.55.48,22.99v55.56h-7.28ZM623.57,485.33v-81.63h-27.73v-6.52h63.15v6.52h-27.71v81.63h-7.71ZM333.23,608.01c-7.45,0-14.06-.79-19.78-2.37-5.72-1.58-10.18-3.32-13.32-5.21l2.84-5.39c8.32,4.5,18.63,6.75,30.91,6.75,6.76,0,11.96-1.76,15.58-5.27,3.68-3.51,5.52-8.47,5.52-14.87,0-2.37-.22-4.36-.65-5.98-.45-1.62-1.26-3.16-2.45-4.62-1.17-1.5-2.9-2.74-5.2-3.73-2.25-1.03-5.13-1.9-8.64-2.61l-14.23-2.84c-7.93-1.58-13.89-4.07-17.87-7.46-3.96-3.4-5.94-8.23-5.94-14.51,0-4.07.8-7.58,2.36-10.55,1.58-3,3.86-5.39,6.82-7.17,2.99-1.78,6.46-3.08,10.35-3.91,3.96-.87,8.45-1.3,13.45-1.3s9.83.61,14.58,1.83c4.77,1.22,8.69,2.61,11.72,4.15l-1.95,5.81c-2.34-1.3-5.78-2.53-10.38-3.67-4.53-1.19-9.25-1.78-14.15-1.78-8.34,0-14.6,1.4-18.78,4.21-4.18,2.76-6.28,7.15-6.28,13.15,0,3.75,1.32,6.77,3.99,9.06,2.64,2.25,6.54,3.93,11.72,5.03l15.88,3.26c3.94.83,7.28,1.82,10.01,2.96,2.75,1.15,5.2,2.63,7.28,4.44,2.14,1.82,3.73,4.09,4.74,6.81,1.02,2.69,1.54,5.88,1.54,9.6,0,8.29-2.73,14.73-8.17,19.31-5.42,4.58-12.59,6.87-21.51,6.87ZM391.53,606.64v-81.63h-27.73v-6.52h63.15v6.52h-27.73v81.63h-7.69ZM463.97,608.01c-5.68,0-10.62-.77-14.8-2.31-4.2-1.54-7.54-3.75-10.01-6.63-2.49-2.88-4.33-6.22-5.52-10.01-1.17-3.83-1.78-8.18-1.78-13.03v-57.52h7.58v58.7c0,8.41,2.08,14.65,6.22,18.72,4.16,4.03,10.42,6.04,18.78,6.04,16.44,0,24.65-8.27,24.65-24.82v-58.65h7.58v57.64c0,3.87-.41,7.4-1.19,10.6-.76,3.2-1.95,6.12-3.62,8.77-1.65,2.65-3.75,4.9-6.28,6.75-2.51,1.82-5.61,3.24-9.29,4.26-3.64.99-7.73,1.48-12.33,1.48ZM519.5,600.31h17.29c12.24,0,21.56-3.12,27.97-9.36,6.43-6.28,9.64-15.62,9.64-28.02,0-6.79-.91-12.66-2.71-17.59-1.78-4.94-4.42-8.88-7.89-11.85-3.47-3-7.58-5.19-12.33-6.57-4.74-1.42-10.2-2.13-16.4-2.13h-15.58v75.53ZM511.92,606.64v-88.15h23.87c7.17,0,13.6.85,19.24,2.55,5.7,1.7,10.64,4.3,14.82,7.82,4.18,3.47,7.41,8.08,9.66,13.8,2.23,5.69,3.36,12.34,3.36,19.96,0,14.41-3.96,25.35-11.89,32.82-7.95,7.46-19.06,11.2-33.36,11.2h-25.69ZM596.45,606.64v-88.15h7.58v88.15h-7.58ZM658.88,601.79c7.26,0,13.37-1.66,18.31-4.98,4.98-3.32,8.6-7.86,10.9-13.62,2.34-5.81,3.49-12.7,3.49-20.67,0-12.48-2.75-22.14-8.28-28.97-5.55-6.83-13.65-10.25-24.35-10.25s-19,3.42-24.65,10.25c-5.61,6.79-8.41,16.45-8.41,28.97s2.79,21.7,8.36,28.73c5.59,7.03,13.82,10.54,24.63,10.54ZM658.88,608.01c-6.72,0-12.72-1.11-18-3.32-5.26-2.25-9.58-5.39-12.98-9.42-3.36-4.07-5.91-8.86-7.69-14.4-1.75-5.53-2.62-11.63-2.62-18.3,0-13.98,3.6-25.08,10.79-33.29,7.21-8.21,17.42-12.32,30.57-12.32s22.98,4.15,30.2,12.44c7.24,8.25,10.85,19.33,10.85,33.23,0,6.51-.89,12.54-2.66,18.07-1.78,5.49-4.38,10.27-7.78,14.34-3.34,4.07-7.65,7.25-12.91,9.54-5.24,2.29-11.18,3.44-17.76,3.44Z"/>
  <path class="cls-2" d="M396.19,709.17c-2.53,0-4.83-.55-6.91-1.66-2.04-1.13-3.53-2.4-4.46-3.82l-.89,4.74h-7.67v-50.88l8.86-.58v11.51c0,2.23-.07,4.77-.19,7.61,2.92-3.83,6.76-5.75,11.48-5.75s8.45,1.76,11.14,5.28c2.71,3.52,4.05,8.12,4.05,13.81s-1.41,10.68-4.2,14.32c-2.77,3.61-6.5,5.42-11.2,5.42ZM394.06,702.44c2.64,0,4.74-1.12,6.33-3.35s2.36-5.41,2.36-9.51-.78-7.26-2.34-9.38c-1.52-2.12-3.62-3.18-6.26-3.18-6,0-9.03,4.05-9.1,12.15,0,4.56.76,7.91,2.27,10.05,1.52,2.14,3.75,3.22,6.74,3.22ZM419.22,724.14c-1.45,0-2.99-.09-4.61-.27l-.43-6.87c1.04.11,2.36.17,3.96.17,2.04,0,3.7-.41,4.94-1.22,1.23-.81,2.27-2.26,3.08-4.33.09-.23.54-1.5,1.36-3.82l-14.97-36.53h9.47l9.79,26.98c.72-2.68,2.34-7.67,4.83-14.96,2.54-7.29,3.92-11.3,4.18-12.02h9.47c-10.31,27.26-15.51,41-15.6,41.23-1.6,4.17-3.62,7.15-6.07,8.94-2.43,1.81-5.57,2.71-9.4,2.71ZM485.36,709.14c-5.98,0-11.33-1.38-16.07-4.13l2.23-7.28c2.12,1.17,4.42,2.12,6.91,2.84,2.49.72,4.94,1.08,7.3,1.08,2.92,0,5.11-.62,6.61-1.86,1.5-1.26,2.23-3.07,2.23-5.42,0-3.12-2.08-5.27-6.24-6.46-.28-.09-1.1-.33-2.47-.71-1.34-.41-2.62-.79-3.81-1.15-1.17-.38-2.01-.68-2.53-.88-6.67-2.35-9.99-6.72-9.99-13.13,0-4.49,1.58-7.95,4.77-10.39,3.21-2.44,7.45-3.66,12.74-3.66,5.98,0,11.14,1.23,15.47,3.69l-2.79,6.7c-4.42-1.99-8.51-2.98-12.31-2.98-2.73,0-4.81.49-6.2,1.46-1.39.95-2.12,2.54-2.21,4.77,0,2.75,1.36,4.55,4.09,5.38.54.2,1.89.64,4.01,1.32,2.12.68,3.49,1.12,4.12,1.32,4.55,1.49,7.78,3.34,9.73,5.55,1.95,2.21,2.95,5.29,2.95,9.24,0,4.72-1.67,8.35-5.03,10.9-3.34,2.53-7.84,3.79-13.5,3.79ZM536.33,705.55c-2.95,2.42-6.85,3.62-11.68,3.62s-8.73-1.21-11.68-3.62c-2.92-2.41-4.4-5.96-4.4-10.63v-23.66h8.9v23.32c0,2.78.56,4.78,1.71,6.02,1.19,1.24,3.03,1.86,5.57,1.86s4.29-.61,5.42-1.83c1.15-1.24,1.71-3.26,1.71-6.06v-23.32h8.88v23.66c0,4.65-1.47,8.19-4.44,10.63ZM559.38,709.14c-5.48,0-9.86-.94-13.17-2.81l.93-6.67c1.47.81,3.38,1.54,5.68,2.2,2.3.63,4.4.95,6.3.95s3.49-.36,4.57-1.08c1.1-.75,1.67-1.83,1.69-3.25,0-1.29-.52-2.3-1.56-3.05-1.02-.74-2.97-1.67-5.85-2.78-1-.36-1.65-.6-1.93-.71-3.44-1.33-5.91-2.81-7.43-4.43-1.49-1.65-2.25-3.87-2.25-6.67,0-3.38,1.21-5.98,3.64-7.79,2.47-1.8,5.89-2.71,10.27-2.71,4.74,0,8.9.89,12.48,2.68l-2.19,6.13c-3.55-1.65-6.91-2.47-10.12-2.47-1.8,0-3.19.31-4.2.91-1,.59-1.49,1.49-1.49,2.71,0,1.15.5,2.05,1.45,2.71.98.63,2.88,1.47,5.7,2.5.09.02.39.13.89.31.48.18.87.33,1.15.44,3.4,1.24,5.91,2.73,7.52,4.47,1.58,1.72,2.38,3.96,2.38,6.74-.02,3.72-1.28,6.6-3.79,8.63-2.49,2.03-6.04,3.05-10.66,3.05ZM579.48,708.46v-50.91l8.88-.58v10.73c0,.52-.04,1.96-.11,4.33-.07,2.35-.11,3.54-.11,3.59,2.97-3.52,6.93-5.28,11.92-5.28,4.16,0,7.39,1.2,9.66,3.59,2.3,2.37,3.44,6.03,3.44,10.97v23.56h-8.86v-22.58c0-3.05-.5-5.28-1.45-6.7-.97-1.42-2.62-2.13-4.96-2.13-1.97,0-3.73.51-5.26,1.52-1.54.99-2.69,2.28-3.47,3.86-.54,2.08-.8,4.79-.8,8.12v17.91h-8.88Z"/>
</svg>