<?xml version="1.0" encoding="UTF-8"?>
<svg id="Layer_1" data-name="Layer 1" xmlns="http://www.w3.org/2000/svg" viewBox="0 0 1000 1000">
  <defs>
    <style>
      .cls-1 {
        fill: #f2f2f2;
      }
    </style>
  </defs>
  <path class="cls-1" d="M415.6,536.34c-94.99-7.5-102.49-24.17-58-106.96,17.64-29.54,34.5-35.22,48.67-43.55,1.51-.89,3.48-.4,4.35,1.13,6.44,11.29,13.16,22.3,23.57,40.75.4.7.35,1.4-.36,1.79-.06.04-.13.07-.2.11-1.64-.28-3.32-.42-5.04-.42-16.74,0-30.32,13.63-30.32,30.43s13.57,30.43,30.32,30.43c12.91,0,23.94-8.1,28.31-19.52.74-.4,1.7-.16,2.12.59,8.91,15.74,12.16,20.58,23.4,40.43.78,1.39.39,3.14-.95,4-10.91,6.95-39.77,22.85-65.87,20.8Z"/>
  <path class="cls-1" d="M613.1,432.65c41.16,85.94,30.49,100.79-63.44,103.83-34.4-.45-47.77-12.18-62.09-20.26-1.53-.86-2.09-2.81-1.21-4.33,6.53-11.23,12.7-22.57,23.43-40.83.41-.7,1.03-1,1.72-.59.06.04.12.08.19.12.58,1.56,1.3,3.09,2.16,4.57,8.4,14.49,26.99,19.4,41.53,10.97,14.54-8.43,19.52-27.01,11.12-41.49-6.48-11.17-19.01-16.64-31.08-14.7-.72-.44-.99-1.39-.55-2.14,9.15-15.6,11.7-20.84,23.24-40.52.81-1.37,2.52-1.92,3.94-1.18,11.48,5.96,39.72,22.95,51.03,46.56Z"/>
  <path class="cls-1" d="M544.44,313.43c-53.96-78.54-72.15-76.7-121.64,3.2-16.77,30.04-13.27,47.48-13.41,63.92-.01,1.75,1.39,3.22,3.15,3.21,12.99-.06,25.89.25,47.07.06.81,0,1.39-.39,1.37-1.2,0-.07,0-.15,0-.22-1.06-1.28-2.03-2.67-2.88-4.16-8.37-14.5-3.35-33.07,11.21-41.47,14.56-8.4,33.14-3.45,41.51,11.06,6.45,11.18,4.94,24.78-2.76,34.27.03.84.71,1.55,1.58,1.55,18.09-.15,23.9.25,46.71.06,1.59-.01,2.92-1.23,2.99-2.82.56-12.93-.08-45.87-14.9-67.45Z"/>
  <path class="cls-1" d="M169.59,661.36v-57.69h-19.59v-4.61h44.63v4.61h-19.59v57.69h-5.44ZM199.15,661.36v-62.3h5.36v27.55h35.75v-27.55h5.36v62.3h-5.36v-30.06h-35.75v30.06h-5.36ZM257.43,661.36v-62.3h34.71l-.21,4.44h-29.14v23.44h27.71v4.56h-27.71v25.37h30.06l-.46,4.48h-34.96ZM317.81,661.36v-62.3h34.71l-.21,4.44h-29.14v23.44h27.72v4.56h-27.72v25.37h30.06l-.46,4.48h-34.96ZM376.8,661.36l-22.44-62.3h5.95l14.15,40.15c.56,1.81,1.17,3.7,1.84,5.65.7,1.93,1.3,3.67,1.8,5.23.5,1.56,1.02,3.41,1.55,5.53.2-1,.47-2.09.84-3.27.39-1.17,1.02-3.04,1.88-5.61.89-2.6,1.76-5.19,2.6-7.79,2.04-6.47,4.47-13.31,7.28-20.51,2.82-7.2,5.15-13.66,6.99-19.39h6.03l-22.73,62.3h-5.74ZM409.25,661.36v-62.3h34.71l-.21,4.44h-29.14v23.44h27.71v4.56h-27.71v25.37h30.06l-.46,4.48h-34.96ZM453.63,661.36v-62.3h6.24l34.29,52.54,2.22,3.06c-.2-8.6-.29-13.94-.29-16.04v-39.56h5.06v62.3h-6.36l-34.2-52.46-2.13-3.06c.22,6.28.33,11.69.33,16.24v39.27h-5.15ZM525.31,661.36v-57.69h-19.59v-4.61h44.63v4.61h-19.59v57.69h-5.44ZM590.79,662.32c-5.27,0-9.94-.56-13.98-1.67s-7.19-2.34-9.42-3.68l2.01-3.81c5.89,3.18,13.17,4.77,21.85,4.77,4.77,0,8.44-1.24,11.01-3.73,2.6-2.48,3.89-5.99,3.89-10.51,0-1.67-.15-3.08-.46-4.23-.31-1.14-.88-2.23-1.72-3.27-.84-1.06-2.07-1.94-3.68-2.64-1.59-.73-3.63-1.34-6.11-1.84l-10.05-2.01c-5.61-1.12-9.82-2.88-12.64-5.27-2.79-2.4-4.19-5.82-4.19-10.26,0-2.88.56-5.36,1.67-7.45,1.12-2.12,2.72-3.81,4.81-5.06,2.12-1.26,4.56-2.18,7.33-2.76,2.79-.61,5.96-.92,9.5-.92s6.95.43,10.3,1.3c3.38.87,6.14,1.84,8.29,2.93l-1.38,4.1c-1.65-.92-4.09-1.79-7.33-2.6-3.21-.84-6.55-1.26-10.01-1.26-5.89,0-10.31.99-13.27,2.97-2.96,1.95-4.44,5.05-4.44,9.29,0,2.65.94,4.79,2.8,6.41,1.87,1.59,4.63,2.78,8.29,3.56l11.22,2.3c2.79.59,5.15,1.28,7.08,2.09,1.95.81,3.67,1.86,5.15,3.14,1.51,1.28,2.62,2.89,3.35,4.81.73,1.9,1.09,4.16,1.09,6.78,0,5.86-1.93,10.41-5.78,13.65-3.82,3.24-8.89,4.86-15.2,4.86ZM631.99,661.36v-57.69h-19.59v-4.61h44.63v4.61h-19.59v57.69h-5.44ZM683.2,662.32c-4.02,0-7.51-.55-10.47-1.63-2.96-1.09-5.32-2.65-7.08-4.69-1.76-2.04-3.06-4.4-3.89-7.08-.84-2.71-1.26-5.78-1.26-9.21v-40.65h5.36v41.49c0,5.95,1.47,10.35,4.4,13.23,2.93,2.85,7.35,4.27,13.27,4.27,11.61,0,17.42-5.85,17.42-17.54v-41.45h5.36v40.74c0,2.73-.28,5.23-.84,7.49-.53,2.26-1.38,4.33-2.55,6.2-1.17,1.87-2.65,3.46-4.44,4.77-1.79,1.28-3.98,2.29-6.57,3.01-2.57.7-5.47,1.05-8.71,1.05ZM722.43,656.88h12.22c8.65,0,15.24-2.2,19.76-6.61,4.55-4.44,6.82-11.04,6.82-19.8,0-4.8-.64-8.94-1.93-12.43-1.26-3.49-3.11-6.28-5.57-8.37-2.46-2.12-5.36-3.67-8.71-4.65-3.35-1-7.21-1.51-11.6-1.51h-11.01v53.38ZM717.07,661.36v-62.3h16.87c5.08,0,9.62.6,13.61,1.8,4.02,1.2,7.51,3.04,10.47,5.53,2.96,2.46,5.23,5.71,6.82,9.75,1.59,4.02,2.39,8.72,2.39,14.11,0,10.19-2.8,17.92-8.41,23.19s-13.47,7.91-23.57,7.91h-18.17ZM776.82,661.36v-62.3h5.36v62.3h-5.36ZM820.94,657.92c5.14,0,9.45-1.17,12.94-3.52,3.52-2.34,6.08-5.55,7.7-9.63,1.65-4.1,2.47-8.97,2.47-14.61,0-8.82-1.95-15.64-5.86-20.47-3.91-4.83-9.64-7.24-17.21-7.24s-13.43,2.41-17.42,7.24c-3.96,4.8-5.95,11.62-5.95,20.47s1.97,15.34,5.9,20.31c3.96,4.97,9.77,7.45,17.42,7.45ZM820.94,662.32c-4.74,0-8.99-.78-12.73-2.34-3.71-1.59-6.77-3.81-9.17-6.66-2.37-2.88-4.19-6.27-5.44-10.17-1.23-3.91-1.84-8.22-1.84-12.94,0-9.88,2.54-17.72,7.62-23.53,5.11-5.81,12.31-8.71,21.6-8.71s16.24,2.93,21.35,8.79c5.11,5.83,7.66,13.66,7.66,23.49,0,4.6-.63,8.86-1.88,12.77-1.26,3.88-3.08,7.26-5.48,10.13-2.37,2.87-5.41,5.12-9.13,6.74-3.71,1.62-7.9,2.43-12.56,2.43Z"/>
  <path class="cls-1" d="M422.37,733.82c-1.79,0-3.41-.39-4.88-1.17-1.45-.8-2.5-1.7-3.16-2.7l-.62,3.35h-5.43v-35.96l6.27-.41v8.13c0,1.58-.05,3.37-.14,5.38,2.07-2.71,4.78-4.07,8.11-4.07s5.97,1.24,7.87,3.73c1.91,2.49,2.87,5.74,2.87,9.76s-.99,7.55-2.97,10.12c-1.96,2.55-4.6,3.83-7.92,3.83ZM420.87,729.06c1.87,0,3.36-.79,4.47-2.37,1.12-1.58,1.67-3.82,1.67-6.72s-.55-5.13-1.65-6.63c-1.08-1.5-2.56-2.25-4.42-2.25-4.24,0-6.39,2.86-6.44,8.59,0,3.22.53,5.59,1.6,7.1,1.07,1.52,2.65,2.27,4.76,2.27ZM437.66,744.39c-1.02,0-2.11-.06-3.25-.19l-.31-4.86c.73.08,1.67.12,2.8.12,1.45,0,2.62-.29,3.49-.86s1.6-1.6,2.18-3.06c.06-.16.38-1.06.96-2.7l-10.57-25.81h6.7l6.91,19.07c.51-1.9,1.65-5.42,3.42-10.57,1.79-5.15,2.77-7.98,2.94-8.49h6.7c-7.29,19.27-10.97,28.98-11.03,29.14-1.13,2.95-2.56,5.06-4.28,6.32-1.72,1.28-3.94,1.91-6.65,1.91ZM482.45,733.8c-4.23,0-8.01-.97-11.36-2.92l1.58-5.14c1.5.83,3.12,1.5,4.88,2.01,1.77.51,3.49.77,5.17.77,2.06,0,3.61-.44,4.67-1.32,1.05-.89,1.58-2.17,1.58-3.83,0-2.2-1.47-3.72-4.4-4.57-.21-.06-.79-.23-1.75-.5-.96-.29-1.86-.56-2.7-.81-.83-.27-1.43-.48-1.79-.62-4.71-1.66-7.06-4.75-7.06-9.28,0-3.17,1.12-5.62,3.37-7.34,2.26-1.72,5.26-2.58,9-2.58,4.23,0,7.87.87,10.93,2.61l-1.96,4.74c-3.12-1.4-6.03-2.11-8.71-2.11-1.93,0-3.39.34-4.38,1.03-.97.67-1.49,1.79-1.55,3.37,0,1.95.96,3.21,2.89,3.8.38.14,1.32.45,2.82.93,1.5.48,2.47.79,2.92.93,3.21,1.05,5.5,2.36,6.87,3.92,1.39,1.56,2.08,3.74,2.08,6.53,0,3.33-1.18,5.9-3.54,7.7-2.36,1.79-5.54,2.68-9.55,2.68ZM517.5,731.26c-2.09,1.71-4.84,2.56-8.25,2.56s-6.16-.85-8.25-2.56c-2.07-1.71-3.11-4.21-3.11-7.51v-16.72h6.29v16.48c0,1.96.41,3.38,1.22,4.26.83.88,2.14,1.32,3.92,1.32s3.03-.43,3.83-1.29c.81-.88,1.22-2.31,1.22-4.28v-16.48h6.27v16.72c0,3.29-1.04,5.79-3.13,7.51ZM532.81,733.8c-3.88,0-6.98-.66-9.31-1.98l.65-4.71c1.05.57,2.39,1.09,4.02,1.56,1.63.45,3.11.67,4.45.67s2.47-.26,3.23-.77c.78-.53,1.18-1.29,1.2-2.3,0-.91-.37-1.63-1.1-2.15-.72-.53-2.1-1.18-4.14-1.96-.7-.26-1.16-.42-1.36-.5-2.43-.94-4.17-1.99-5.24-3.13-1.07-1.16-1.6-2.73-1.6-4.71,0-2.39.86-4.23,2.58-5.5,1.74-1.28,4.16-1.91,7.25-1.91,3.35,0,6.29.63,8.83,1.89l-1.55,4.33c-2.5-1.17-4.89-1.75-7.15-1.75-1.26,0-2.25.22-2.97.65-.7.41-1.05,1.05-1.05,1.91,0,.81.34,1.45,1.03,1.91.69.45,2.03,1.04,4.02,1.77.06.02.27.09.62.22.35.13.62.23.81.31,2.41.88,4.18,1.93,5.31,3.16,1.13,1.21,1.7,2.8,1.7,4.76-.02,2.63-.91,4.67-2.68,6.1-1.77,1.44-4.28,2.15-7.54,2.15ZM546.04,733.32v-35.98l6.27-.41v7.58c0,.37-.02,1.39-.07,3.06-.05,1.66-.07,2.5-.07,2.54,2.09-2.49,4.9-3.73,8.42-3.73,2.94,0,5.21.85,6.82,2.54,1.63,1.67,2.44,4.26,2.44,7.75v16.65h-6.27v-15.96c0-2.15-.34-3.73-1.03-4.74-.69-1-1.85-1.51-3.49-1.51-1.4,0-2.65.36-3.73,1.08-1.08.7-1.9,1.61-2.44,2.73-.38,1.47-.57,3.38-.57,5.74v12.66h-6.27Z"/>
</svg>