<?xml version="1.0" encoding="UTF-8"?>
<svg id="Layer_1" data-name="Layer 1" xmlns="http://www.w3.org/2000/svg" viewBox="0 0 1000 1000">
  <defs>
    <style>
      .cls-1 {
        fill: #4e5359;
      }
    </style>
  </defs>
  <path class="cls-1" d="M352.84,606.42c-139.7-96.06-136.4-128.43,5.8-216.42,53.45-29.82,84.48-23.58,113.74-23.81,3.11-.02,5.72,2.48,5.69,5.61-.11,23.12.44,46.07.08,83.75-.03,1.43-.71,2.47-2.15,2.44-.14,0-.24-.01-.41-.01-2.26-1.88-4.74-3.61-7.38-5.13-25.8-14.9-58.84-5.98-73.77,19.92-14.96,25.9-6.16,58.97,19.64,73.86,19.89,11.49,44.08,8.81,60.97-4.89,1.5.05,2.75,1.27,2.75,2.8-.27,32.18.44,42.53.08,83.12-.03,2.84-2.21,5.2-5.04,5.32-22.99.99-81.62-.17-120-26.56Z"/>
  <path class="cls-1" d="M749.43,622.34c-13.05,169.04-42.69,182.44-190.15,103.55-52.6-31.3-62.77-61.27-77.64-86.45-1.58-2.69-.71-6.19,1.99-7.75,20.08-11.49,39.64-23.48,72.44-42.07,1.25-.71,2.48-.63,3.19.63.05.11.11.23.19.35-.49,2.92-.76,5.92-.74,8.97.05,29.79,24.33,53.9,54.24,53.85,29.88-.06,54.1-24.25,54.05-54.04-.05-22.97-14.49-42.56-34.82-50.3-.71-1.32-.3-3.03,1.03-3.79,27.98-15.89,36.59-21.71,71.87-41.76,2.48-1.4,5.61-.71,7.14,1.68,12.4,19.4,40.78,70.7,37.21,117.14Z"/>
  <path class="cls-1" d="M749.68,377.56c-13.27-169.02-42.93-182.38-190.26-103.28-52.58,31.37-62.68,61.36-77.53,86.57-1.58,2.69-.71,6.19,2.02,7.74,20.08,11.46,39.66,23.42,72.46,41.96,1.25.71,2.51.63,3.19-.63.05-.11.14-.23.19-.35-.49-2.92-.76-5.91-.76-8.97.03-29.79,24.27-53.93,54.19-53.92,29.91.01,54.13,24.17,54.13,53.97-.03,22.97-14.44,42.58-34.76,50.35-.71,1.32-.27,3.03,1.06,3.79,28.01,15.86,36.61,21.65,71.92,41.66,2.48,1.4,5.61.7,7.14-1.69,12.37-19.41,40.67-70.75,37.02-117.19Z"/>
</svg>