<?xml version="1.0" encoding="UTF-8"?>
<svg id="Layer_1" data-name="Layer 1" xmlns="http://www.w3.org/2000/svg" viewBox="0 0 1000 1000">
  <defs>
    <style>
      .cls-1 {
        fill: #f2f2f2;
      }
    </style>
  </defs>
  <path class="cls-1" d="M169.6,490.17v-57.69h-19.6v-4.61h44.63v4.61h-19.6v57.69h-5.44ZM199.15,490.17v-62.3h5.36v27.55h35.75v-27.55h5.36v62.3h-5.36v-30.06h-35.75v30.06h-5.36ZM257.44,490.17v-62.3h34.71l-.21,4.44h-29.14v23.44h27.71v4.56h-27.71v25.37h30.06l-.46,4.48h-34.95ZM317.81,490.17v-62.3h34.71l-.21,4.44h-29.14v23.44h27.71v4.56h-27.71v25.37h30.06l-.46,4.48h-34.95ZM376.8,490.17l-22.45-62.3h5.96l14.15,40.15c.55,1.81,1.18,3.7,1.84,5.65.7,1.92,1.3,3.67,1.81,5.23.51,1.56,1.01,3.4,1.55,5.53.2-1,.47-2.09.84-3.27.38-1.17,1.01-3.04,1.88-5.61.89-2.6,1.76-5.19,2.59-7.79,2.04-6.47,4.47-13.31,7.29-20.51,2.82-7.2,5.14-13.66,7-19.39h6.02l-22.72,62.3h-5.74ZM409.24,490.17v-62.3h34.71l-.2,4.44h-29.15v23.44h27.73v4.56h-27.73v25.37h30.07l-.46,4.48h-34.97ZM453.63,490.17v-62.3h6.25l34.28,52.54,2.22,3.06c-.2-8.6-.29-13.94-.29-16.04v-39.56h5.07v62.3h-6.37l-34.2-52.46-2.13-3.06c.21,6.28.32,11.69.32,16.24v39.27h-5.14ZM525.32,490.17v-57.69h-19.6v-4.61h44.63v4.61h-19.6v57.69h-5.44ZM590.8,491.14c-5.28,0-9.94-.56-13.99-1.68-4.04-1.12-7.18-2.34-9.42-3.68l2.01-3.81c5.89,3.18,13.18,4.77,21.86,4.77,4.76,0,8.44-1.24,11.01-3.73,2.59-2.48,3.89-5.99,3.89-10.51,0-1.68-.15-3.08-.46-4.23-.31-1.14-.87-2.23-1.72-3.27-.84-1.06-2.07-1.94-3.69-2.64-1.59-.73-3.63-1.34-6.11-1.84l-10.04-2.01c-5.62-1.12-9.83-2.87-12.65-5.27-2.79-2.4-4.18-5.82-4.18-10.26,0-2.88.55-5.36,1.67-7.45,1.12-2.12,2.73-3.81,4.81-5.06,2.13-1.26,4.56-2.18,7.33-2.76,2.79-.61,5.96-.92,9.51-.92s6.95.43,10.29,1.3c3.38.87,6.14,1.84,8.3,2.93l-1.39,4.1c-1.64-.92-4.09-1.79-7.32-2.6-3.22-.84-6.55-1.26-10.01-1.26-5.88,0-10.3.99-13.26,2.97-2.97,1.95-4.44,5.05-4.44,9.29,0,2.65.93,4.79,2.8,6.41,1.87,1.59,4.64,2.78,8.28,3.56l11.22,2.3c2.79.59,5.16,1.28,7.07,2.09,1.96.81,3.67,1.86,5.16,3.14,1.5,1.28,2.62,2.89,3.34,4.81.73,1.9,1.09,4.16,1.09,6.78,0,5.86-1.91,10.41-5.77,13.65-3.83,3.24-8.88,4.86-15.19,4.86ZM631.99,490.17v-57.69h-19.58v-4.61h44.63v4.61h-19.6v57.69h-5.45ZM683.2,491.14c-4.03,0-7.52-.55-10.47-1.63-2.95-1.09-5.31-2.65-7.07-4.69s-3.06-4.4-3.89-7.08c-.84-2.71-1.26-5.78-1.26-9.21v-40.65h5.36v41.49c0,5.95,1.45,10.35,4.39,13.23,2.92,2.85,7.35,4.27,13.27,4.27,11.61,0,17.41-5.85,17.41-17.54v-41.45h5.36v40.74c0,2.73-.28,5.23-.84,7.49-.52,2.26-1.38,4.33-2.54,6.2-1.18,1.87-2.66,3.46-4.44,4.77-1.79,1.28-3.98,2.29-6.57,3.01-2.57.7-5.48,1.05-8.71,1.05ZM722.43,485.69h12.23c8.65,0,15.23-2.2,19.75-6.61,4.55-4.44,6.83-11.04,6.83-19.8,0-4.8-.64-8.94-1.93-12.43-1.26-3.49-3.11-6.28-5.57-8.37-2.45-2.12-5.36-3.67-8.7-4.65-3.35-1-7.23-1.51-11.61-1.51h-11.01v53.38ZM717.07,490.17v-62.3h16.87c5.08,0,9.61.6,13.61,1.8,4.01,1.2,7.5,3.04,10.46,5.53,2.97,2.46,5.24,5.71,6.83,9.75,1.59,4.02,2.39,8.72,2.39,14.11,0,10.19-2.8,17.92-8.42,23.19-5.6,5.27-13.46,7.91-23.56,7.91h-18.17ZM776.81,490.17v-62.3h5.36v62.3h-5.36ZM820.96,486.74c5.13,0,9.45-1.17,12.92-3.52,3.52-2.34,6.09-5.55,7.72-9.63,1.64-4.1,2.47-8.97,2.47-14.61,0-8.82-1.96-15.64-5.86-20.47-3.9-4.83-9.65-7.24-17.21-7.24s-13.43,2.41-17.41,7.24c-3.97,4.8-5.96,11.62-5.96,20.47s1.98,15.34,5.91,20.31c3.97,4.97,9.77,7.45,17.42,7.45ZM820.96,491.14c-4.75,0-8.99-.78-12.74-2.34-3.71-1.59-6.77-3.81-9.17-6.66-2.37-2.88-4.18-6.27-5.44-10.17-1.22-3.91-1.84-8.22-1.84-12.94,0-9.88,2.54-17.72,7.61-23.53,5.11-5.81,12.31-8.71,21.6-8.71s16.25,2.93,21.36,8.79c5.1,5.83,7.66,13.66,7.66,23.49,0,4.6-.63,8.86-1.88,12.77-1.26,3.88-3.08,7.26-5.48,10.13-2.37,2.87-5.42,5.12-9.13,6.74-3.72,1.62-7.9,2.43-12.55,2.43Z"/>
  <path class="cls-1" d="M166.93,562.64c-1.79,0-3.41-.39-4.88-1.17-1.44-.8-2.5-1.7-3.15-2.7l-.63,3.35h-5.42v-35.96l6.26-.41v8.13c0,1.58-.05,3.37-.14,5.38,2.07-2.71,4.78-4.07,8.11-4.07s5.97,1.24,7.87,3.73c1.91,2.49,2.86,5.74,2.86,9.76s-1,7.55-2.97,10.12c-1.96,2.55-4.59,3.83-7.92,3.83ZM165.43,557.88c1.87,0,3.35-.79,4.47-2.37s1.67-3.82,1.67-6.72-.55-5.13-1.65-6.63c-1.07-1.5-2.56-2.25-4.42-2.25-4.24,0-6.38,2.86-6.43,8.59,0,3.22.54,5.59,1.61,7.1,1.07,1.52,2.65,2.27,4.76,2.27ZM183.21,573.21c-1.03,0-2.11-.06-3.26-.19l-.31-4.86c.73.08,1.67.12,2.8.12,1.44,0,2.62-.29,3.49-.86.87-.57,1.61-1.6,2.17-3.06.06-.16.38-1.06.96-2.7l-10.58-25.81h6.69l6.92,19.07c.51-1.9,1.65-5.42,3.41-10.57,1.79-5.15,2.77-7.98,2.95-8.49h6.69c-7.29,19.27-10.96,28.98-11.02,29.14-1.13,2.95-2.56,5.06-4.29,6.32-1.72,1.28-3.94,1.91-6.65,1.91ZM229.95,562.61c-4.23,0-8.01-.97-11.36-2.92l1.58-5.14c1.5.83,3.12,1.5,4.88,2.01,1.76.51,3.49.77,5.16.77,2.07,0,3.61-.44,4.67-1.32,1.06-.89,1.58-2.17,1.58-3.83,0-2.2-1.47-3.72-4.41-4.57-.2-.06-.78-.23-1.75-.5-.95-.29-1.85-.56-2.69-.81-.83-.27-1.42-.48-1.79-.62-4.72-1.66-7.06-4.75-7.06-9.28,0-3.17,1.12-5.62,3.37-7.34,2.27-1.72,5.27-2.58,9-2.58,4.23,0,7.87.87,10.93,2.61l-1.98,4.74c-3.12-1.4-6.02-2.11-8.7-2.11-1.93,0-3.4.34-4.38,1.03-.98.67-1.5,1.79-1.56,3.37,0,1.95.96,3.21,2.89,3.8.38.14,1.33.45,2.83.93,1.5.48,2.47.79,2.91.93,3.22,1.05,5.5,2.36,6.87,3.92,1.38,1.56,2.08,3.74,2.08,6.53,0,3.33-1.18,5.9-3.55,7.7-2.36,1.79-5.54,2.68-9.54,2.68ZM265.98,560.08c-2.08,1.71-4.84,2.56-8.25,2.56s-6.17-.85-8.25-2.56c-2.07-1.71-3.11-4.21-3.11-7.51v-16.72h6.29v16.48c0,1.96.4,3.38,1.21,4.26.84.88,2.14,1.32,3.93,1.32s3.03-.43,3.83-1.29c.81-.88,1.21-2.31,1.21-4.28v-16.48h6.28v16.72c0,3.29-1.04,5.79-3.14,7.51ZM282.27,562.61c-3.87,0-6.97-.66-9.31-1.98l.66-4.71c1.04.57,2.39,1.09,4.01,1.55,1.62.45,3.11.67,4.46.67s2.47-.26,3.23-.77c.78-.53,1.18-1.29,1.19-2.3,0-.91-.37-1.63-1.1-2.15-.72-.53-2.1-1.18-4.13-1.96-.7-.26-1.16-.42-1.36-.5-2.43-.94-4.18-1.99-5.25-3.13-1.06-1.16-1.59-2.73-1.59-4.71,0-2.39.86-4.23,2.57-5.5,1.75-1.28,4.16-1.91,7.26-1.91,3.35,0,6.29.63,8.82,1.89l-1.55,4.33c-2.51-1.17-4.88-1.75-7.15-1.75-1.27,0-2.25.22-2.97.65-.7.41-1.06,1.05-1.06,1.91,0,.81.35,1.45,1.03,1.91.69.45,2.04,1.04,4.03,1.77.06.02.28.09.63.22.34.13.61.23.81.31,2.4.88,4.18,1.93,5.31,3.16,1.12,1.21,1.68,2.8,1.68,4.76-.02,2.63-.9,4.67-2.68,6.1-1.76,1.44-4.27,2.15-7.53,2.15ZM296.48,562.13v-35.98l6.28-.41v7.58c0,.37-.03,1.39-.08,3.06-.05,1.66-.08,2.5-.08,2.54,2.1-2.49,4.9-3.73,8.42-3.73,2.94,0,5.22.85,6.83,2.54,1.62,1.68,2.43,4.26,2.43,7.75v16.65h-6.26v-15.96c0-2.15-.35-3.73-1.03-4.74-.69-1-1.85-1.51-3.51-1.51-1.39,0-2.63.36-3.72,1.08-1.09.7-1.9,1.61-2.45,2.73-.38,1.47-.57,3.38-.57,5.74v12.66h-6.28Z"/>
</svg>