<?xml version="1.0" encoding="UTF-8"?>
<svg id="Layer_1" data-name="Layer 1" xmlns="http://www.w3.org/2000/svg" viewBox="0 0 1000 1000">
  <defs>
    <style>
      .cls-1 {
        fill: #00947d;
      }

      .cls-2 {
        fill: #4e5359;
      }

      .cls-3 {
        fill: #b99525;
      }
    </style>
  </defs>
  <path class="cls-1" d="M559.38,281.56c16.94-49.53,26.84-51.24,64.82-16.27,12.87,12.97,13.97,22.51,16.3,30.98.39,1.4-.42,2.87-1.81,3.26-6.53,1.81-13.14,3.81-23.72,6.66-.56.15-1.04.01-1.25-.48.37-.83.69-1.7.91-2.6,2.29-8.91-3.12-17.99-12.06-20.28-8.96-2.29-18.04,3.07-20.33,11.98-1.75,6.82,1,13.74,6.4,17.64-.02.57-.39,1.11-.98,1.27-9,2.44-12.18,3.54-23.47,6.6-1.27.35-2.6-.34-2.99-1.59-2.27-7.23-6.32-24.01-1.83-37.14Z"/>
  <path class="cls-1" d="M587.61,400.8c-51.35,10.18-57.79,2.48-46.59-47.92,4.76-17.64,12.45-23.38,18.63-29.63,1.02-1.03,2.68-1.08,3.72-.07,4.84,4.74,9.87,9.45,17.65,17.17.44.42.54.9.21,1.32-.89.1-1.81.27-2.7.52-8.86,2.49-14.01,11.72-11.5,20.61,2.49,8.89,11.7,14.07,20.56,11.58,6.78-1.91,11.37-7.76,12.06-14.38.5-.28,1.14-.23,1.56.19,6.65,6.58,9.19,8.77,17.5,17,.94.93,1,2.42.1,3.39-5.09,5.59-17.59,17.52-31.2,20.22Z"/>
  <path class="cls-1" d="M660.41,380.53c49.16-18,50.66-27.93,14.88-65.16-13.24-12.59-22.8-13.49-31.31-15.63-1.41-.36-2.87.48-3.22,1.88-1.66,6.56-3.53,13.21-6.15,23.84-.15.58.02,1.05.52,1.24.81-.38,1.68-.71,2.58-.96,8.86-2.47,18.04,2.73,20.54,11.62,2.47,8.89-2.68,18.11-11.56,20.58-6.78,1.89-13.74-.71-17.75-6.02-.58.02-1.1.4-1.25.99-2.27,9.07-3.28,12.27-6.11,23.61-.31,1.28.39,2.59,1.66,2.96,7.28,2.12,24.14,5.82,37.17,1.05Z"/>
  <path class="cls-2" d="M326.61,413.05v-78.33h-26.61v-6.25h60.6v6.25h-26.61v78.33h-7.38ZM366.73,413.05v-84.58h7.28v37.4h48.54v-37.4h7.28v84.58h-7.28v-40.81h-48.54v40.81h-7.28ZM445.87,413.05v-84.58h47.13l-.29,6.03h-39.56v31.83h37.63v6.2h-37.63v34.45h40.81l-.62,6.08h-47.46ZM309.9,529.47v-84.58h47.11l-.27,6.03h-39.56v31.83h37.63v6.2h-37.63v34.45h40.81l-.62,6.08h-47.46ZM389.99,529.47l-30.48-84.58h8.07l19.21,54.51c.77,2.46,1.6,5.02,2.52,7.67.94,2.62,1.77,4.99,2.43,7.11.69,2.12,1.39,4.62,2.12,7.5.25-1.36.64-2.84,1.12-4.43.54-1.59,1.39-4.13,2.56-7.62,1.23-3.52,2.39-7.05,3.53-10.57,2.77-8.79,6.05-18.08,9.9-27.85,3.82-9.78,6.98-18.55,9.48-26.32h8.19l-30.87,84.58h-7.77ZM434.04,529.47v-84.58h47.13l-.29,6.03h-39.56v31.83h37.63v6.2h-37.63v34.45h40.81l-.62,6.08h-47.46ZM494.31,529.47v-84.58h8.46l46.55,71.34,3.01,4.15c-.25-11.67-.39-18.93-.39-21.77v-53.72h6.88v84.58h-8.63l-46.44-71.23-2.91-4.15c.31,8.53.46,15.88.46,22.05v53.32h-6.99ZM591.62,529.47v-78.33h-26.61v-6.25h60.6v6.25h-26.59v78.33h-7.4ZM336.94,647.19c-7.15,0-13.49-.76-18.98-2.27-5.49-1.52-9.75-3.18-12.78-5l2.72-5.17c8,4.32,17.88,6.48,29.67,6.48,6.49,0,11.48-1.69,14.95-5.06,3.53-3.37,5.3-8.13,5.3-14.27,0-2.27-.21-4.19-.62-5.74-.42-1.55-1.21-3.03-2.33-4.43-1.14-1.44-2.81-2.63-5.01-3.58-2.16-.99-4.93-1.82-8.29-2.5l-13.66-2.73c-7.61-1.52-13.33-3.9-17.15-7.16-3.8-3.26-5.7-7.9-5.7-13.93,0-3.9.77-7.28,2.29-10.12,1.52-2.88,3.68-5.17,6.53-6.88,2.89-1.71,6.19-2.96,9.96-3.75,3.78-.83,8.09-1.25,12.89-1.25s9.44.59,13.99,1.76c4.59,1.17,8.34,2.5,11.25,3.98l-1.87,5.57c-2.22-1.25-5.55-2.43-9.94-3.52-4.37-1.14-8.9-1.71-13.6-1.71-8,0-13.99,1.34-18.02,4.04-4.01,2.65-6.03,6.86-6.03,12.62,0,3.6,1.29,6.5,3.82,8.7,2.54,2.16,6.28,3.77,11.25,4.83l15.24,3.13c3.78.8,6.98,1.74,9.6,2.84,2.66,1.1,4.99,2.52,6.98,4.26,2.06,1.74,3.58,3.92,4.55,6.54.98,2.58,1.48,5.65,1.48,9.21,0,7.96-2.62,14.13-7.84,18.53-5.2,4.4-12.08,6.59-20.64,6.59ZM392.88,645.88v-78.33h-26.61v-6.25h60.6v6.25h-26.59v78.33h-7.4ZM462.4,647.19c-5.45,0-10.19-.74-14.2-2.22-4.01-1.48-7.21-3.6-9.6-6.37-2.39-2.77-4.16-5.97-5.3-9.61-1.12-3.68-1.7-7.85-1.7-12.51v-55.2h7.28v56.33c0,8.07,2,14.06,5.99,17.96,3.97,3.86,9.98,5.8,18,5.8,15.78,0,23.66-7.94,23.66-23.82v-56.28h7.28v55.31c0,3.71-.37,7.11-1.14,10.17-.73,3.07-1.87,5.87-3.47,8.41-1.58,2.54-3.6,4.7-6.03,6.48-2.41,1.74-5.38,3.11-8.92,4.09-3.49.95-7.42,1.42-11.83,1.42ZM515.68,639.8h16.59c11.75,0,20.68-2.99,26.84-8.98,6.17-6.03,9.27-14.99,9.27-26.89,0-6.52-.87-12.14-2.62-16.88-1.7-4.74-4.24-8.53-7.57-11.37-3.33-2.88-7.28-4.98-11.83-6.31-4.53-1.36-9.79-2.05-15.74-2.05h-14.95v72.47ZM508.4,645.88v-84.58h22.91c6.88,0,13.06.81,18.46,2.44,5.47,1.63,10.21,4.13,14.22,7.5,4.01,3.33,7.11,7.75,9.27,13.24,2.16,5.46,3.24,11.84,3.24,19.16,0,13.83-3.82,24.33-11.43,31.49-7.61,7.16-18.29,10.74-32.01,10.74h-24.65ZM589.52,645.88v-84.58h7.28v84.58h-7.28ZM649.43,641.22c6.98,0,12.83-1.59,17.57-4.78,4.78-3.18,8.25-7.54,10.46-13.07,2.25-5.57,3.37-12.18,3.37-19.84,0-11.98-2.66-21.24-7.96-27.8-5.3-6.56-13.1-9.83-23.37-9.83s-18.23,3.28-23.66,9.83c-5.36,6.52-8.07,15.78-8.07,27.8s2.68,20.82,8.02,27.57c5.38,6.74,13.26,10.12,23.64,10.12ZM649.43,647.19c-6.44,0-12.2-1.06-17.28-3.18-5.05-2.16-9.19-5.17-12.45-9.04-3.22-3.9-5.68-8.51-7.38-13.81-1.68-5.31-2.52-11.16-2.52-17.56,0-13.41,3.45-24.06,10.35-31.95,6.94-7.88,16.71-11.82,29.33-11.82s22.06,3.98,28.98,11.94c6.94,7.92,10.41,18.55,10.41,31.89,0,6.25-.85,12.03-2.56,17.34-1.7,5.27-4.2,9.85-7.44,13.76-3.22,3.9-7.36,6.95-12.41,9.15-5.03,2.2-10.71,3.3-17.05,3.3Z"/>
  <path class="cls-3" d="M331.31,744.27c-2.43,0-4.64-.53-6.63-1.59-1.95-1.08-3.39-2.31-4.28-3.67l-.85,4.55h-7.36v-48.82l8.5-.55v11.04c0,2.14-.06,4.58-.19,7.31,2.81-3.68,6.49-5.52,11.02-5.52s8.11,1.69,10.69,5.07c2.6,3.38,3.89,7.8,3.89,13.25s-1.35,10.25-4.03,13.74c-2.66,3.47-6.24,5.2-10.75,5.2ZM329.27,737.81c2.54,0,4.55-1.07,6.07-3.22s2.27-5.19,2.27-9.13-.75-6.96-2.25-9c-1.46-2.04-3.47-3.05-6.01-3.05-5.76,0-8.67,3.89-8.73,11.66,0,4.37.73,7.59,2.18,9.65,1.46,2.06,3.6,3.09,6.47,3.09ZM353.41,758.63c-1.39,0-2.87-.09-4.43-.26l-.42-6.59c1,.11,2.27.16,3.8.16,1.95,0,3.55-.39,4.74-1.17,1.19-.78,2.18-2.17,2.95-4.16.08-.22.52-1.44,1.31-3.67l-14.36-35.05h9.08l9.4,25.89c.69-2.58,2.25-7.36,4.64-14.36,2.43-7,3.76-10.84,4.01-11.53h9.08c-9.9,26.16-14.88,39.35-14.97,39.56-1.54,4.01-3.47,6.86-5.82,8.58-2.33,1.73-5.34,2.6-9.02,2.6ZM416.87,744.24c-5.74,0-10.87-1.32-15.42-3.96l2.14-6.98c2.04,1.12,4.24,2.04,6.63,2.73,2.39.69,4.74,1.04,7.01,1.04,2.81,0,4.91-.59,6.34-1.79,1.43-1.21,2.14-2.95,2.14-5.2,0-2.99-2-5.06-5.99-6.2-.27-.09-1.06-.32-2.37-.68-1.29-.39-2.52-.76-3.66-1.1-1.12-.37-1.93-.65-2.43-.84-6.4-2.25-9.58-6.45-9.58-12.6,0-4.31,1.52-7.63,4.57-9.97,3.08-2.34,7.15-3.51,12.22-3.51,5.74,0,10.69,1.18,14.84,3.54l-2.68,6.43c-4.24-1.91-8.17-2.86-11.81-2.86-2.62,0-4.61.47-5.95,1.4-1.33.91-2.04,2.44-2.12,4.58,0,2.64,1.31,4.36,3.93,5.16.52.2,1.81.62,3.85,1.27,2.04.65,3.35,1.07,3.95,1.27,4.37,1.43,7.46,3.21,9.33,5.33,1.87,2.12,2.83,5.08,2.83,8.87,0,4.53-1.6,8.01-4.82,10.46-3.2,2.43-7.53,3.64-12.95,3.64ZM465.79,740.79c-2.83,2.32-6.57,3.48-11.2,3.48s-8.38-1.16-11.2-3.48c-2.81-2.32-4.22-5.72-4.22-10.2v-22.71h8.54v22.38c0,2.66.54,4.59,1.64,5.78,1.14,1.19,2.91,1.79,5.34,1.79s4.12-.58,5.2-1.75c1.1-1.19,1.64-3.13,1.64-5.81v-22.38h8.52v22.71c0,4.46-1.41,7.86-4.26,10.2ZM487.91,744.24c-5.26,0-9.46-.9-12.64-2.69l.89-6.4c1.41.78,3.24,1.48,5.45,2.11,2.2.61,4.22.91,6.05.91s3.35-.35,4.39-1.04c1.06-.72,1.6-1.75,1.62-3.12,0-1.23-.5-2.21-1.5-2.92-.98-.71-2.85-1.6-5.61-2.66-.96-.35-1.58-.57-1.85-.68-3.31-1.28-5.68-2.7-7.13-4.26-1.43-1.58-2.16-3.71-2.16-6.4,0-3.25,1.16-5.74,3.49-7.47,2.37-1.73,5.65-2.6,9.85-2.6,4.55,0,8.54.86,11.97,2.57l-2.1,5.88c-3.41-1.58-6.63-2.37-9.71-2.37-1.73,0-3.06.29-4.03.88-.96.56-1.43,1.43-1.43,2.6,0,1.1.48,1.97,1.39,2.6.94.61,2.76,1.41,5.47,2.4.08.02.37.12.85.29.46.17.83.31,1.1.42,3.26,1.19,5.68,2.62,7.21,4.29,1.52,1.65,2.29,3.8,2.29,6.47-.02,3.57-1.23,6.33-3.64,8.28-2.39,1.95-5.8,2.92-10.23,2.92ZM507.2,743.59v-48.85l8.52-.55v10.3c0,.5-.04,1.89-.1,4.16-.06,2.25-.1,3.4-.1,3.44,2.85-3.38,6.65-5.07,11.43-5.07,3.99,0,7.09,1.15,9.27,3.44,2.2,2.27,3.31,5.78,3.31,10.53v22.61h-8.5v-21.67c0-2.92-.48-5.07-1.39-6.43-.94-1.36-2.52-2.05-4.76-2.05-1.89,0-3.58.49-5.05,1.46-1.48.95-2.58,2.19-3.33,3.7-.52,1.99-.77,4.59-.77,7.8v17.18h-8.52Z"/>
</svg>