<?xml version="1.0" encoding="UTF-8"?>
<svg id="Layer_1" data-name="Layer 1" xmlns="http://www.w3.org/2000/svg" viewBox="0 0 1000 1000">
  <defs>
    <style>
      .cls-1 {
        fill: #4e5359;
      }
    </style>
  </defs>
  <path class="cls-1" d="M215.59,561.3c-89.09-61.26-87-81.9,3.69-138.01,34.09-19.02,53.88-15.04,72.53-15.18,1.99-.02,3.65,1.58,3.64,3.58-.08,14.74.27,29.38.04,53.41,0,.92-.45,1.57-1.36,1.56-.08,0-.17,0-.26,0-1.46-1.2-3.03-2.3-4.71-3.27-16.45-9.5-37.52-3.81-47.06,12.7-9.54,16.51-3.93,37.6,12.53,47.1,12.69,7.32,28.12,5.62,38.89-3.12.96.03,1.76.81,1.75,1.79-.18,20.52.28,27.12.05,53.01-.02,1.81-1.4,3.31-3.21,3.39-14.67.64-52.05-.11-76.53-16.94Z"/>
  <path class="cls-1" d="M468.49,571.46c-8.31,107.8-27.22,116.34-121.25,66.03-33.55-19.96-40.03-39.07-49.52-55.13-1.01-1.72-.46-3.95,1.27-4.94,12.79-7.33,25.28-14.97,46.19-26.83.8-.45,1.59-.4,2.03.4.04.07.08.15.12.22-.31,1.86-.47,3.77-.47,5.72.03,19,15.52,34.37,34.59,34.34,19.07-.03,34.5-15.47,34.47-34.46-.03-14.65-9.24-27.14-22.2-32.08-.45-.84-.18-1.93.67-2.41,17.84-10.14,23.32-13.84,45.83-26.63,1.57-.89,3.57-.45,4.54,1.07,7.9,12.37,26.02,45.08,23.73,74.7Z"/>
  <path class="cls-1" d="M468.66,415.36c-8.47-107.79-27.38-116.3-121.35-65.86-33.52,20.01-39.98,39.13-49.44,55.2-1.01,1.72-.45,3.95,1.28,4.94,12.8,7.31,25.3,14.94,46.22,26.76.8.45,1.59.4,2.03-.4.04-.07.08-.15.12-.22-.31-1.86-.48-3.77-.48-5.72,0-19,15.47-34.4,34.54-34.39,19.07,0,34.52,15.42,34.51,34.42,0,14.65-9.2,27.15-22.15,32.11-.45.84-.18,1.93.67,2.41,17.86,10.11,23.34,13.81,45.87,26.57,1.57.89,3.57.44,4.54-1.08,7.89-12.38,25.95-45.12,23.63-74.73Z"/>
  <path class="cls-1" d="M547.23,391.46v-65.46h-22.23v-5.23h50.64v5.23h-22.23v65.46h-6.18ZM580.78,391.46v-70.69h6.08v31.26h40.57v-31.26h6.08v70.69h-6.08v-34.11h-40.57v34.11h-6.08ZM646.91,391.46v-70.69h39.38l-.24,5.04h-33.06v26.6h31.45v5.18h-31.45v28.79h34.11l-.52,5.08h-39.67ZM533.27,488.75v-70.69h39.38l-.24,5.04h-33.06v26.6h31.45v5.18h-31.45v28.79h34.11l-.52,5.08h-39.67ZM600.2,488.75l-25.46-70.69h6.75l16.06,45.56c.63,2.06,1.33,4.2,2.09,6.41.79,2.18,1.47,4.16,2.04,5.94.57,1.77,1.16,3.86,1.76,6.27.22-1.14.54-2.37.95-3.71.44-1.33,1.16-3.45,2.14-6.37,1.01-2.94,2-5.89,2.95-8.84,2.31-7.35,5.07-15.11,8.26-23.28,3.2-8.17,5.84-15.5,7.93-22h6.84l-25.79,70.69h-6.51ZM637.02,488.75v-70.69h39.38l-.24,5.04h-33.06v26.6h31.45v5.18h-31.45v28.79h34.11l-.52,5.08h-39.67ZM687.38,488.75v-70.69h7.08l38.9,59.62,2.52,3.47c-.22-9.75-.33-15.82-.33-18.19v-44.89h5.75v70.69h-7.22l-38.81-59.52-2.42-3.47c.25,7.13.38,13.27.38,18.43v44.56h-5.84ZM768.71,488.75v-65.46h-22.24v-5.23h50.64v5.23h-22.24v65.46h-6.17ZM555.88,587.13c-5.99,0-11.27-.63-15.87-1.9s-8.15-2.66-10.69-4.18l2.28-4.32c6.68,3.61,14.95,5.42,24.8,5.42,5.42,0,9.58-1.41,12.49-4.23,2.94-2.82,4.42-6.79,4.42-11.92,0-1.9-.18-3.5-.52-4.8-.35-1.3-1-2.53-1.95-3.71-.95-1.2-2.34-2.2-4.18-2.99-1.81-.82-4.12-1.52-6.94-2.09l-11.4-2.28c-6.37-1.27-11.15-3.26-14.35-5.98-3.17-2.72-4.75-6.6-4.75-11.64,0-3.26.63-6.08,1.9-8.46,1.27-2.41,3.09-4.32,5.46-5.75,2.41-1.42,5.18-2.47,8.31-3.14,3.17-.7,6.76-1.04,10.78-1.04s7.89.49,11.69,1.47c3.83.98,6.97,2.09,9.41,3.33l-1.57,4.66c-1.87-1.05-4.64-2.03-8.31-2.94-3.64-.95-7.43-1.43-11.35-1.43-6.68,0-11.7,1.12-15.06,3.37-3.36,2.22-5.03,5.73-5.03,10.55,0,3.01,1.06,5.43,3.18,7.27,2.12,1.81,5.26,3.15,9.41,4.04l12.73,2.61c3.17.67,5.84,1.46,8.03,2.37,2.22.92,4.16,2.11,5.84,3.56,1.71,1.46,2.98,3.28,3.8,5.46.82,2.15,1.24,4.72,1.24,7.7,0,6.65-2.19,11.81-6.56,15.49-4.34,3.67-10.09,5.51-17.24,5.51ZM602.63,586.04v-65.46h-22.23v-5.23h50.64v5.23h-22.23v65.46h-6.18ZM660.73,587.13c-4.56,0-8.52-.62-11.88-1.85-3.36-1.23-6.03-3.01-8.03-5.32-2-2.31-3.47-4.99-4.42-8.03-.95-3.07-1.43-6.56-1.43-10.45v-46.13h6.08v47.08c0,6.75,1.66,11.75,4.99,15.01,3.33,3.23,8.35,4.85,15.06,4.85,13.18,0,19.76-6.63,19.76-19.9v-47.03h6.08v46.22c0,3.1-.32,5.94-.95,8.5-.6,2.57-1.57,4.91-2.9,7.03-1.33,2.12-3.01,3.93-5.04,5.42-2.03,1.46-4.51,2.6-7.46,3.42-2.91.79-6.21,1.19-9.88,1.19ZM705.24,580.95h13.87c9.82,0,17.29-2.5,22.42-7.51,5.16-5.04,7.74-12.53,7.74-22.47,0-5.45-.73-10.15-2.17-14.11-1.43-3.96-3.54-7.12-6.33-9.5-2.79-2.41-6.08-4.16-9.88-5.27-3.8-1.14-8.19-1.71-13.16-1.71h-12.49v60.57ZM699.16,586.04v-70.69h19.14c5.76,0,10.91.68,15.44,2.04,4.56,1.36,8.52,3.45,11.88,6.27,3.36,2.79,5.94,6.48,7.75,11.07,1.79,4.56,2.69,9.9,2.69,16.01,0,11.56-3.18,20.33-9.54,26.32-6.37,5.98-15.28,8.98-26.75,8.98h-20.62ZM766.96,586.04v-70.69h6.08v70.69h-6.08ZM817.03,582.14c5.82,0,10.72-1.33,14.68-3.99,4-2.66,6.9-6.3,8.74-10.93,1.88-4.66,2.8-10.18,2.8-16.58,0-10.01-2.21-17.75-6.64-23.23-4.45-5.48-10.94-8.22-19.53-8.22s-15.24,2.74-19.77,8.22c-4.5,5.45-6.74,13.19-6.74,23.23s2.22,17.4,6.71,23.04c4.48,5.64,11.08,8.46,19.75,8.46ZM817.03,587.13c-5.39,0-10.2-.89-14.44-2.66-4.22-1.81-7.68-4.32-10.41-7.55-2.69-3.26-4.76-7.11-6.18-11.54-1.39-4.43-2.08-9.33-2.08-14.68,0-11.21,2.88-20.11,8.65-26.7,5.79-6.59,13.97-9.88,24.51-9.88s18.43,3.33,24.22,9.98c5.8,6.62,8.7,15.5,8.7,26.65,0,5.22-.71,10.05-2.14,14.49-1.42,4.4-3.51,8.23-6.24,11.5-2.69,3.26-6.13,5.81-10.35,7.65-4.2,1.84-8.96,2.76-14.25,2.76Z"/>
  <path class="cls-1" d="M551.17,668.26c-2.03,0-3.87-.44-5.54-1.33-1.65-.9-2.84-1.93-3.58-3.07l-.71,3.8h-6.16v-40.8l7.11-.46v9.23c0,1.79-.05,3.83-.16,6.11,2.35-3.08,5.42-4.61,9.2-4.61s6.78,1.41,8.93,4.24c2.17,2.82,3.26,6.51,3.26,11.08s-1.12,8.57-3.37,11.48c-2.23,2.9-5.22,4.34-8.99,4.34ZM549.46,662.86c2.12,0,3.81-.9,5.08-2.69s1.9-4.33,1.9-7.63-.62-5.82-1.87-7.52c-1.23-1.7-2.9-2.55-5.02-2.55-4.81,0-7.25,3.25-7.3,9.75,0,3.66.61,6.34,1.82,8.06,1.21,1.72,3.01,2.58,5.4,2.58ZM569.63,680.26c-1.16,0-2.39-.07-3.69-.22l-.35-5.51c.83.09,1.89.14,3.18.14,1.65,0,2.97-.33,3.96-.98.99-.65,1.82-1.81,2.47-3.47.07-.18.43-1.2,1.09-3.07l-12-29.29h7.6l7.85,21.63c.58-2.15,1.87-6.15,3.88-12,2.03-5.85,3.14-9.06,3.34-9.64h7.6c-8.27,21.86-12.44,32.88-12.51,33.06-1.29,3.35-2.9,5.74-4.86,7.17-1.95,1.45-4.47,2.17-7.55,2.17ZM622.67,668.23c-4.8,0-9.09-1.1-12.89-3.31l1.79-5.84c1.7.94,3.55,1.7,5.54,2.28,2.01.58,3.96.87,5.86.87,2.33,0,4.1-.5,5.29-1.49,1.19-1.01,1.79-2.46,1.79-4.34,0-2.5-1.67-4.23-4.99-5.18-.24-.07-.9-.26-1.98-.57-1.09-.33-2.11-.63-3.07-.92-.94-.31-1.62-.54-2.04-.71-5.34-1.88-8.01-5.39-8.01-10.53,0-3.6,1.28-6.38,3.83-8.33,2.57-1.95,5.97-2.93,10.21-2.93,4.8,0,8.93.99,12.41,2.96l-2.23,5.38c-3.55-1.59-6.84-2.39-9.88-2.39-2.19,0-3.84.39-4.97,1.17-1.1.76-1.69,2.04-1.77,3.83,0,2.21,1.09,3.65,3.29,4.32.43.16,1.5.52,3.2,1.06,1.7.54,2.8.89,3.31,1.06,3.64,1.2,6.23,2.68,7.79,4.45,1.58,1.77,2.36,4.24,2.36,7.41,0,3.78-1.34,6.7-4.02,8.74-2.68,2.03-6.29,3.04-10.83,3.04ZM663.56,665.35c-2.37,1.94-5.49,2.9-9.37,2.9s-6.99-.97-9.37-2.9c-2.35-1.94-3.53-4.78-3.53-8.52v-18.97h7.14v18.7c0,2.23.46,3.84,1.38,4.83.94,1,2.43,1.49,4.45,1.49s3.44-.49,4.34-1.46c.92-1,1.38-2.62,1.38-4.86v-18.7h7.11v18.97c0,3.73-1.19,6.57-3.56,8.52ZM682.04,668.23c-4.4,0-7.92-.75-10.56-2.25l.73-5.35c1.19.65,2.71,1.24,4.56,1.76,1.85.51,3.53.76,5.05.76s2.8-.29,3.66-.87c.89-.6,1.34-1.47,1.36-2.61,0-1.03-.42-1.85-1.25-2.44-.81-.6-2.38-1.34-4.7-2.23-.8-.29-1.31-.48-1.55-.57-2.75-1.07-4.73-2.25-5.94-3.56-1.21-1.32-1.82-3.1-1.82-5.35,0-2.71.98-4.79,2.93-6.24,1.97-1.45,4.71-2.17,8.22-2.17,3.8,0,7.14.72,10.02,2.15l-1.77,4.91c-2.84-1.32-5.55-1.98-8.12-1.98-1.43,0-2.55.24-3.37.73-.8.47-1.2,1.2-1.2,2.17,0,.92.39,1.65,1.17,2.17.78.51,2.3,1.18,4.56,2.01.07.02.31.1.71.24.4.14.71.26.92.35,2.73,1,4.74,2.19,6.02,3.58,1.29,1.38,1.93,3.18,1.93,5.4-.02,2.99-1.03,5.29-3.04,6.92-2.01,1.63-4.86,2.44-8.55,2.44ZM698.17,667.69v-40.83l7.11-.46v8.61c0,.42-.03,1.57-.08,3.47-.06,1.88-.08,2.84-.08,2.88,2.37-2.82,5.56-4.24,9.56-4.24,3.33,0,5.91.96,7.74,2.88,1.85,1.9,2.77,4.83,2.77,8.8v18.89h-7.11v-18.11c0-2.44-.39-4.23-1.17-5.38-.78-1.14-2.1-1.71-3.96-1.71-1.59,0-3,.41-4.24,1.22-1.23.8-2.15,1.83-2.77,3.09-.43,1.67-.65,3.84-.65,6.51v14.36h-7.11Z"/>
</svg>