<?xml version="1.0" encoding="UTF-8"?>
<svg id="Layer_1" data-name="Layer 1" xmlns="http://www.w3.org/2000/svg" viewBox="0 0 1000 1000">
  <defs>
    <style>
      .cls-1 {
        fill: #f2f2f2;
      }
    </style>
  </defs>
  <path class="cls-1" d="M327.37,365.78v-80.57h-27.37v-6.43h62.33v6.43h-27.37v80.57h-7.59ZM368.64,365.78v-87h7.48v38.47h49.93v-38.47h7.48v87h-7.48v-41.98h-49.93v41.98h-7.48ZM450.04,365.78v-87h48.47l-.3,6.2h-40.69v32.74h38.7v6.37h-38.7v35.43h41.97l-.64,6.26h-48.82ZM310.18,485.52v-87h48.45l-.28,6.2h-40.69v32.74h38.7v6.37h-38.7v35.43h41.97l-.64,6.26h-48.82ZM392.56,485.52l-31.35-87h8.3l19.76,56.07c.79,2.53,1.65,5.17,2.59,7.89.96,2.69,1.82,5.13,2.5,7.31.71,2.18,1.43,4.75,2.18,7.72.26-1.4.66-2.92,1.15-4.56.56-1.64,1.43-4.25,2.63-7.83,1.26-3.62,2.46-7.25,3.63-10.88,2.84-9.04,6.22-18.59,10.18-28.65,3.93-10.06,7.18-19.08,9.75-27.07h8.42l-31.75,87h-8ZM437.87,485.52v-87h48.47l-.3,6.2h-40.69v32.74h38.7v6.37h-38.7v35.43h41.97l-.64,6.26h-48.82ZM499.86,485.52v-87h8.7l47.88,73.38,3.1,4.27c-.26-12.01-.41-19.47-.41-22.39v-55.25h7.08v87h-8.87l-47.77-73.26-2.99-4.27c.32,8.77.47,16.33.47,22.69v54.84h-7.18ZM599.95,485.52v-80.57h-27.37v-6.43h62.33v6.43h-27.35v80.57h-7.61ZM338,606.6c-7.36,0-13.88-.78-19.52-2.34s-10.03-3.27-13.15-5.14l2.8-5.32c8.23,4.44,18.39,6.66,30.51,6.66,6.67,0,11.8-1.73,15.37-5.2,3.64-3.47,5.45-8.36,5.45-14.67,0-2.34-.21-4.31-.64-5.91-.43-1.6-1.24-3.12-2.39-4.56-1.18-1.48-2.89-2.71-5.15-3.68-2.22-1.01-5.07-1.87-8.53-2.57l-14.05-2.81c-7.83-1.56-13.71-4.01-17.64-7.37-3.91-3.35-5.86-8.13-5.86-14.32,0-4.02.79-7.48,2.35-10.41,1.56-2.96,3.78-5.32,6.71-7.07,2.97-1.75,6.37-3.04,10.24-3.86,3.89-.86,8.32-1.29,13.26-1.29s9.71.6,14.39,1.81c4.73,1.21,8.57,2.57,11.57,4.09l-1.92,5.73c-2.29-1.29-5.71-2.5-10.22-3.62-4.49-1.17-9.15-1.76-13.98-1.76-8.23,0-14.39,1.38-18.54,4.15-4.13,2.73-6.2,7.05-6.2,12.98,0,3.7,1.33,6.68,3.93,8.95,2.61,2.22,6.46,3.88,11.57,4.97l15.67,3.22c3.89.82,7.18,1.79,9.88,2.92,2.74,1.13,5.13,2.59,7.18,4.39,2.12,1.79,3.68,4.03,4.68,6.72,1,2.65,1.52,5.81,1.52,9.47,0,8.19-2.69,14.54-8.06,19.06-5.35,4.52-12.42,6.78-21.23,6.78ZM395.54,605.26v-80.57h-27.37v-6.43h62.33v6.43h-27.35v80.57h-7.61ZM467.04,606.6c-5.6,0-10.48-.76-14.6-2.28-4.13-1.52-7.42-3.7-9.88-6.55s-4.28-6.14-5.45-9.88c-1.15-3.78-1.75-8.07-1.75-12.86v-56.77h7.48v57.94c0,8.3,2.05,14.46,6.16,18.48,4.08,3.97,10.26,5.96,18.52,5.96,16.23,0,24.33-8.17,24.33-24.5v-57.88h7.48v56.89c0,3.82-.38,7.31-1.18,10.46-.75,3.16-1.92,6.04-3.57,8.65-1.63,2.61-3.7,4.83-6.2,6.67-2.48,1.79-5.54,3.19-9.17,4.21-3.59.98-7.63,1.46-12.17,1.46ZM521.84,599h17.06c12.08,0,21.28-3.08,27.6-9.24,6.35-6.2,9.54-15.42,9.54-27.66,0-6.7-.9-12.49-2.69-17.36-1.75-4.87-4.36-8.77-7.78-11.69-3.42-2.96-7.48-5.13-12.17-6.49-4.66-1.4-10.07-2.1-16.19-2.1h-15.37v74.55ZM514.36,605.26v-87h23.56c7.08,0,13.43.84,18.99,2.51,5.62,1.68,10.5,4.25,14.63,7.72,4.13,3.43,7.31,7.97,9.54,13.62,2.22,5.61,3.34,12.18,3.34,19.7,0,14.23-3.93,25.02-11.76,32.39-7.83,7.37-18.82,11.05-32.93,11.05h-25.36ZM597.79,605.26v-87h7.48v87h-7.48ZM659.42,600.47c7.18,0,13.19-1.64,18.07-4.91,4.92-3.27,8.49-7.76,10.76-13.45,2.31-5.73,3.46-12.53,3.46-20.41,0-12.32-2.74-21.85-8.19-28.59-5.45-6.74-13.47-10.12-24.03-10.12s-18.75,3.37-24.33,10.12c-5.52,6.7-8.3,16.23-8.3,28.59s2.76,21.42,8.25,28.36c5.54,6.94,13.64,10.41,24.31,10.41ZM659.42,606.6c-6.63,0-12.55-1.09-17.77-3.27-5.2-2.22-9.45-5.32-12.81-9.3-3.31-4.02-5.84-8.75-7.59-14.21-1.73-5.46-2.59-11.48-2.59-18.07,0-13.8,3.55-24.75,10.65-32.86,7.14-8.11,17.19-12.16,30.17-12.16s22.69,4.09,29.81,12.28c7.14,8.15,10.71,19.08,10.71,32.8,0,6.43-.88,12.37-2.63,17.83-1.75,5.42-4.32,10.14-7.66,14.15-3.31,4.01-7.57,7.15-12.77,9.41-5.17,2.26-11.01,3.39-17.53,3.39Z"/>
  <path class="cls-1" d="M332.2,706.46c-2.5,0-4.77-.55-6.82-1.64-2.01-1.11-3.49-2.37-4.4-3.77l-.88,4.68h-7.57v-50.21l8.75-.57v11.36c0,2.2-.06,4.71-.19,7.52,2.89-3.78,6.67-5.68,11.33-5.68s8.34,1.74,10.99,5.21c2.67,3.47,4,8.02,4,13.63s-1.39,10.55-4.15,14.13c-2.74,3.56-6.41,5.35-11.05,5.35ZM330.11,699.81c2.61,0,4.68-1.1,6.24-3.31s2.33-5.33,2.33-9.39-.77-7.16-2.31-9.25c-1.5-2.09-3.57-3.14-6.18-3.14-5.92,0-8.92,4-8.98,12,0,4.5.75,7.81,2.24,9.92,1.5,2.12,3.7,3.18,6.65,3.18ZM354.93,721.22c-1.43,0-2.95-.09-4.55-.27l-.43-6.78c1.03.11,2.33.17,3.91.17,2.01,0,3.66-.4,4.87-1.2,1.22-.8,2.25-2.23,3.04-4.28.09-.22.53-1.48,1.35-3.77l-14.78-36.05h9.34l9.66,26.63c.71-2.65,2.31-7.57,4.77-14.77,2.5-7.2,3.87-11.15,4.13-11.86h9.34c-10.18,26.91-15.31,40.47-15.4,40.69-1.58,4.12-3.57,7.06-5.99,8.82-2.39,1.78-5.5,2.67-9.28,2.67ZM420.21,706.42c-5.9,0-11.18-1.36-15.87-4.08l2.2-7.18c2.1,1.16,4.36,2.09,6.82,2.81,2.46.71,4.88,1.07,7.21,1.07,2.89,0,5.05-.61,6.52-1.84,1.48-1.25,2.2-3.03,2.2-5.35,0-3.07-2.05-5.2-6.16-6.38-.28-.09-1.09-.32-2.44-.7-1.33-.4-2.59-.78-3.76-1.14-1.15-.38-1.99-.67-2.5-.87-6.59-2.32-9.86-6.64-9.86-12.96,0-4.43,1.56-7.85,4.7-10.26,3.16-2.41,7.36-3.61,12.57-3.61,5.9,0,10.99,1.21,15.27,3.64l-2.76,6.62c-4.36-1.96-8.4-2.94-12.15-2.94-2.69,0-4.75.48-6.12,1.44-1.37.93-2.1,2.51-2.18,4.71,0,2.72,1.35,4.49,4.04,5.31.53.2,1.86.64,3.96,1.3,2.1.67,3.44,1.1,4.06,1.3,4.49,1.47,7.68,3.3,9.6,5.48,1.92,2.18,2.91,5.22,2.91,9.12,0,4.65-1.65,8.24-4.96,10.76-3.29,2.5-7.74,3.74-13.32,3.74ZM470.52,702.88c-2.91,2.38-6.76,3.58-11.53,3.58s-8.62-1.19-11.53-3.58c-2.89-2.38-4.34-5.88-4.34-10.49v-23.35h8.79v23.02c0,2.74.56,4.72,1.69,5.95,1.18,1.23,2.99,1.84,5.5,1.84s4.23-.6,5.35-1.8c1.13-1.23,1.69-3.22,1.69-5.98v-23.02h8.77v23.35c0,4.59-1.45,8.08-4.38,10.49ZM493.28,706.42c-5.41,0-9.73-.92-13-2.77l.92-6.58c1.45.8,3.34,1.52,5.6,2.17,2.27.62,4.34.94,6.22.94s3.44-.36,4.51-1.07c1.09-.74,1.65-1.8,1.67-3.21,0-1.27-.51-2.27-1.54-3.01-1.01-.73-2.93-1.65-5.77-2.74-.98-.36-1.63-.59-1.9-.7-3.4-1.31-5.84-2.77-7.33-4.38-1.48-1.63-2.22-3.82-2.22-6.58,0-3.34,1.2-5.9,3.59-7.68,2.44-1.78,5.82-2.67,10.14-2.67,4.68,0,8.79.88,12.32,2.64l-2.16,6.05c-3.51-1.63-6.82-2.44-9.99-2.44-1.77,0-3.14.3-4.15.9-.98.58-1.48,1.47-1.48,2.67,0,1.14.49,2.03,1.43,2.67.96.62,2.84,1.45,5.62,2.47.09.02.38.12.88.3.47.18.86.32,1.13.43,3.36,1.23,5.84,2.69,7.42,4.41,1.56,1.69,2.35,3.91,2.35,6.65-.02,3.68-1.26,6.52-3.74,8.52-2.46,2.01-5.97,3.01-10.52,3.01ZM513.12,705.76v-50.25l8.77-.57v10.59c0,.51-.04,1.94-.11,4.28-.06,2.32-.11,3.5-.11,3.54,2.93-3.47,6.84-5.21,11.76-5.21,4.11,0,7.29,1.18,9.54,3.54,2.27,2.34,3.4,5.95,3.4,10.83v23.25h-8.75v-22.28c0-3.01-.49-5.21-1.43-6.62-.96-1.4-2.59-2.1-4.9-2.1-1.95,0-3.68.5-5.2,1.5-1.52.98-2.65,2.25-3.42,3.81-.53,2.05-.79,4.72-.79,8.02v17.67h-8.77Z"/>
</svg>