<svg width="170px" class="headerDesktop_nav-logo__2bCa9 headerDesktop_headerLogoAlign__2tMwD st-current" xmlns="http://www.w3.org/2000/svg" xmlns:xlink="http://www.w3.org/1999/xlink" version="1.1" id="Layer_1" x="0px" y="0px" viewBox="0 0 1060.3 172.2" xml:space="preserve" data-label="svg#Layer_1"><g><g><g><g><g><path fill="#E71C24" d="M326.6,151.9h-20.4v-49.4h-55.6v49.4h-20.5V37.6h20.5v47.3h55.6V37.6h20.4V151.9z"/><path fill="#E71C24" d="M383.7,153.7c-13,0-23.2-4-30.6-12c-7.4-8-11.1-19-11.1-33.1c0-14,3.7-25,11.2-33       c7.5-8.1,17.6-12.1,30.5-12.1c12.9,0,23.1,4,30.6,12s11.1,19.1,11.1,33.1c0,14.1-3.7,25.1-11.1,33.1       C406.8,149.7,396.6,153.7,383.7,153.7z M367.7,129.7c3.8,5,9.1,7.5,15.9,7.5s12.2-2.5,15.9-7.5c3.7-5,5.6-12,5.6-21.1       c0-9-1.9-16.1-5.6-21.1s-9-7.5-15.9-7.5c-6.9,0-12.2,2.5-15.9,7.5s-5.6,12-5.6,21.1C362.1,117.7,364,124.7,367.7,129.7z"/><path fill="#E71C24" d="M438.7,151.9V65.2h18.9v14h1.3c1.8-5,4.9-8.8,9.1-11.6c4.2-2.8,9.2-4.2,15-4.2c5.9,0,10.9,1.4,15,4.2       c4.1,2.8,7.1,6.6,9,11.6h1.3c2.2-4.8,5.6-8.6,10.3-11.5s10-4.3,16-4.3c8.7,0,15.5,2.6,20.4,7.7c4.9,5.1,7.4,12.2,7.4,21.2v59.6       h-19.6V97.3c0-11.2-5.3-16.7-15.9-16.7c-5.1,0-9.2,1.6-12.3,4.9c-3.1,3.3-4.7,7.4-4.7,12.4v54H491v-56c0-4.8-1.4-8.5-4.2-11.2       c-2.8-2.7-6.6-4.1-11.5-4.1s-8.9,1.8-12.1,5.3c-3.2,3.5-4.8,8-4.8,13.3v52.7H438.7z"/><path fill="#E71C24" d="M635.8,128.1h18.6c-1.8,7.9-6.2,14.2-13,18.7c-6.8,4.6-15.3,6.9-25.5,6.9c-12.7,0-22.7-4-30-11.9       c-7.3-8-10.9-18.9-10.9-32.9s3.6-25,10.9-33.2s17.2-12.2,29.8-12.2c12.4,0,22.1,3.9,29.1,11.6c7,7.7,10.5,18.5,10.5,32.1v6.3       h-60.6v1c0.3,7.2,2.3,13,6.2,17.2c3.9,4.2,9.1,6.3,15.5,6.3C626.4,138.1,632.9,134.7,635.8,128.1z M615.7,79.1       c-5.9,0-10.7,1.9-14.5,5.8c-3.8,3.9-5.9,9-6.3,15.3h40.8c-0.2-6.4-2.1-11.6-5.7-15.4S621.6,79.1,615.7,79.1z"/><path fill="#E71C24" d="M743.6,134v17.9h-72.9V37.6h20.5V134H743.6z"/><path fill="#E71C24" d="M780.9,153.4c-8.5,0-15.4-2.4-20.7-7.1c-5.3-4.8-8-11-8-18.9s2.8-14,8.5-18.4c5.7-4.4,13.8-7,24.4-7.6       l22.4-1.3v-7.3c0-4.3-1.4-7.6-4.2-9.8c-2.8-2.3-6.8-3.4-12.1-3.4c-4.5,0-8.3,0.8-11.3,2.3c-3,1.6-4.9,3.8-5.8,6.7h-18.5       c0.8-7.7,4.5-13.8,11.1-18.3c6.6-4.5,15.1-6.8,25.4-6.8c11.1,0,19.7,2.6,25.7,7.7c6.1,5.1,9.1,12.3,9.1,21.6v59.2h-18.9v-11.9       h-1.3c-2.4,4.2-5.9,7.4-10.4,9.8C791.7,152.2,786.6,153.4,780.9,153.4z M786.7,137.9c5.9,0,10.9-1.7,14.8-5.1s5.9-7.6,5.9-12.6       v-6.9l-19.6,1.3c-10.8,0.7-16.2,4.6-16.2,11.7c0,3.6,1.4,6.4,4.2,8.5C778.7,136.9,782.3,137.9,786.7,137.9z" class=""/><path fill="#E71C24" d="M844,151.9V65.2H863v13.9h1.3c2.1-5,5.4-8.8,9.7-11.5c4.4-2.7,9.7-4.1,16.1-4.1c9.6,0,17,2.8,22.2,8.4       c5.2,5.6,7.7,13.6,7.7,23.9v56.1h-19.7v-51.4c0-13.3-5.8-19.9-17.5-19.9c-5.9,0-10.5,1.9-14,5.6c-3.4,3.8-5.2,8.8-5.2,15.2       v50.5H844z" class=""/><path fill="#E71C24" d="M993.3,128.1h18.6c-1.8,7.9-6.2,14.2-13,18.7c-6.8,4.6-15.3,6.9-25.5,6.9c-12.7,0-22.7-4-30-11.9       s-10.9-18.9-10.9-32.9s3.6-25,10.9-33.2c7.3-8.2,17.2-12.2,29.8-12.2c12.4,0,22.1,3.9,29.1,11.6c7,7.7,10.5,18.5,10.5,32.1v6.3       h-60.6v1c0.3,7.2,2.3,13,6.2,17.2c3.9,4.2,9.1,6.3,15.5,6.3C983.9,138.1,990.3,134.7,993.3,128.1z M973.2,79.1       c-5.9,0-10.7,1.9-14.5,5.8c-3.8,3.9-5.9,9-6.3,15.3h40.8c-0.2-6.4-2.1-11.6-5.7-15.4S979.1,79.1,973.2,79.1z"/></g><g><path fill="#E71C24" d="M1033.7,65c0-0.4,0.1-0.8,0.4-1.1c0.3-0.3,0.6-0.4,1.1-0.4c0.4,0,0.7,0.1,1,0.4c0.3,0.3,0.4,0.6,0.4,1.1       c0,0.4-0.1,0.7-0.4,1c-0.3,0.3-0.6,0.4-1,0.4c-0.4,0-0.8-0.1-1.1-0.4C1033.8,65.7,1033.7,65.4,1033.7,65z"/><path fill="#E71C24" d="M1050,89.7V88c1.7-0.4,3.1-1.2,4.2-2.6c1.1-1.4,1.6-3,1.6-4.9c0-2.6-0.9-4.6-2.8-6.2       c-1.9-1.5-4.4-2.3-7.5-2.3c-3.2,0-5.7,0.8-7.6,2.3c-1.9,1.5-2.8,3.6-2.8,6.2c0,1.9,0.5,3.6,1.5,4.9c1,1.4,2.4,2.2,4,2.6v1.7       c-2.1-0.3-3.8-1.4-5.1-3c-1.3-1.7-2-3.7-2-6.2c0-3.1,1.1-5.6,3.2-7.4c2.1-1.8,5-2.8,8.7-2.8c3.6,0,6.5,0.9,8.7,2.8       c2.1,1.8,3.2,4.3,3.2,7.4c0,2.4-0.7,4.5-2.1,6.2C1053.8,88.3,1052.1,89.3,1050,89.7z"/><path fill="#E71C24" d="M1036.7,112.7c-2.1-1.9-3.2-4.4-3.2-7.5c0-3.1,1.1-5.6,3.2-7.5c2.1-1.9,5-2.8,8.7-2.8s6.5,0.9,8.7,2.8       c2.1,1.9,3.2,4.4,3.2,7.5c0,3.1-1.1,5.6-3.2,7.5c-2.1,1.9-5,2.8-8.7,2.8S1038.9,114.6,1036.7,112.7z M1037.9,99       c-1.9,1.6-2.8,3.6-2.8,6.2c0,2.6,0.9,4.7,2.8,6.2c1.9,1.6,4.4,2.3,7.5,2.3c3.2,0,5.7-0.8,7.6-2.3c1.9-1.6,2.8-3.6,2.8-6.2       c0-2.6-0.9-4.7-2.8-6.2c-1.9-1.6-4.4-2.3-7.6-2.3C1042.2,96.7,1039.7,97.5,1037.9,99z"/><path fill="#E71C24" d="M1033.9,121.6h23.1v1.6h-5v0c1.6,0.5,2.9,1.3,3.9,2.5c1,1.2,1.5,2.7,1.5,4.5c0,1.8-0.5,3.3-1.6,4.5       c-1,1.2-2.3,2.1-3.9,2.4v0.1c1.6,0.4,2.9,1.3,3.9,2.6c1.1,1.3,1.6,2.9,1.6,4.7c0,2.2-0.7,4-2.1,5.4c-1.4,1.3-3.3,2-5.7,2h-15.6       v-1.7h15.2c2.1,0,3.7-0.5,4.9-1.6c1.2-1.1,1.8-2.6,1.8-4.4c0-1.9-0.7-3.5-2.1-4.7c-1.4-1.2-3.2-1.8-5.4-1.8h-14.4v-1.7h15.2       c2,0,3.6-0.6,4.8-1.7c1.2-1.1,1.8-2.6,1.8-4.4c0-1.9-0.7-3.5-2.2-4.7c-1.5-1.2-3.4-1.8-5.9-1.8h-13.8V121.6z"/></g></g></g></g><path fill="#FFC766" d="M8.7,77.4l16.3-14.7v0c-0.5,0.5-1,1.1-1.5,1.7c-1.6,2-2.7,4.5-3.2,7c-0.5,2.8-0.2,5.7,0.8,8.3l26.7,82.2   c-2.8-1.1-5.6-3.1-7.5-6.2c-8.7-13.9-25.1-40.5-34.8-56.2C1.1,92.3,2.5,83,8.7,77.4"/><path fill="#F18E48" d="M20.4,71.4c0.6-3.4,2.3-6.5,4.8-8.9l25.1-22.6c4.9-2.2,10.8-1.5,15.4,2.6l23.4,21.2L54.4,95   c-1.3,1.2-2,2.9-2,4.8v63.2c-1.4-0.1-3.2-0.5-4.5-1L21.2,79.7C20.2,77.1,19.9,74.1,20.4,71.4"/><path fill="#3777B6" d="M81,12.4c2.3-2.1,5.2-3.1,8.2-3.1c2.9,0,5.8,1,8.2,3.1l30.6,27.5c-4.9-2.2-10.8-1.5-15.4,2.6L89.1,63.6   L65.7,42.5c-4.6-4.1-10.5-4.7-15.4-2.6L81,12.4z"/><path fill="#284180" d="M157.8,71.4c-0.5-2.6-1.6-5-3.2-7c-0.5-0.7-1-1.3-1.6-1.8l-25.1-22.6c-4.9-2.2-10.8-1.5-15.4,2.6L89.1,63.6   L123.9,95c1.3,1.2,2,2.9,2,4.8v63.2c1.4-0.1,3.2-0.5,4.5-1L157,79.7C158,77.1,158.3,74.1,157.8,71.4"/><path fill="#8CC0E5" d="M169.5,77.4l-16.3-14.7v0c0.5,0.5,1,1.1,1.5,1.7c1.6,2,2.7,4.5,3.2,7c0.5,2.8,0.2,5.7-0.8,8.3l-26.7,82.2   c2.8-1.1,5.6-3.1,7.5-6.2c8.6-13.9,25.1-40.5,34.8-56.2C177.1,92.3,175.8,83,169.5,77.4"/><g><path fill="#E71C24" d="M54.4,95l34.8-31.3L123.9,95c1.3,1.2,2,2.9,2,4.8v63.2c-4,0.3-8.2-0.9-11.4-3.9l-10.3-9.3    c-4.3-3.8-9.6-5.8-15-5.8c-5.4,0-10.7,1.9-15,5.8L63.8,159c-3.3,3-7.4,4.2-11.4,3.9V99.7C52.4,97.9,53.1,96.1,54.4,95"/></g></g></svg>