<?xml version="1.0" encoding="UTF-8"?>
<svg id="Layer_1" data-name="Layer 1" xmlns="http://www.w3.org/2000/svg" viewBox="0 0 200.2 36">
  <defs>
    <style>
      .cls-1 { fill: #e86362; }
      .cls-2 { fill: #9c769e; }
      .cls-3 { fill: #de3e59; }
      .cls-4 { fill: #2d252e; }
    </style>
  </defs>
  <g>
    <path class="cls-3" d="m21.49,1.58c.05,0,.1,0,.14,0,.57.07.79.03,1.73,1.33.95,1.31,4,7.68,4.57,8.79.57,1.11,4.03,8.84,4.47,10.59.4,1.6,1.27,3.2-1.08,4.63-2.56,1.55-5.88,2.73-7.09,3.15-1.22.42-3.26,1.21-4.43,1.49-.63.15-1.01.3-1.6.3-.51,0-1.18-.11-2.31-.44-2.43-.71-4.87-1.48-6.3-2.01-1.43-.53-3.96-1.48-5.15-2.36-1.14-.84-1.87-.89-1.65-3.75.23-2.95.81-4.71,1.44-6.72.63-2.01,1.8-5.62,2.55-6.93.75-1.31,1.26-2.23,3.64-3.6,2.38-1.37,4.01-2.15,5.39-2.79,1.32-.61,4.6-1.68,5.68-1.68M21.49,0h0C19.94,0,16.3,1.29,15.15,1.82c-1.46.68-3.14,1.49-5.52,2.85-2.72,1.56-3.4,2.75-4.19,4.13l-.03.05c-.62,1.08-1.52,3.51-2.69,7.24l-.08.27c-.61,1.96-1.2,3.81-1.42,6.81-.22,2.89.44,3.88,1.92,4.88.13.09.25.17.37.26,1.28.94,3.53,1.82,5.54,2.57,1.81.68,4.79,1.57,6.41,2.05,1.22.36,2.04.51,2.76.51.65,0,1.12-.12,1.57-.24.12-.03.25-.07.39-.1.92-.22,2.22-.69,3.38-1.1.44-.16.86-.31,1.2-.43,1.68-.57,4.88-1.76,7.4-3.29,3.08-1.87,2.35-4.43,1.95-5.8-.06-.2-.11-.39-.16-.57-.5-1.99-4.08-9.92-4.6-10.92-.12-.23-.35-.71-.65-1.32-1.63-3.31-3.28-6.63-4.04-7.68-1.01-1.4-1.6-1.83-2.73-1.96h-.08C21.73,0,21.62,0,21.49,0Z"/>
    <path class="cls-2" d="m12.46,3.47c1.93,0,3.38.26,4.97.52,2.04.33,5.7.97,7.08,1.53,1.38.56,2.35.93,4.01,3.1,1.67,2.17,2.66,3.69,3.48,4.97.82,1.29,2.47,4.64,2.46,5.57,0,.58.08.8-1.04,1.92-1.13,1.14-6.86,5.12-7.85,5.85-.99.73-7.97,5.32-9.6,6.02-.83.35-1.65.86-2.5.86-.67,0-1.38-.31-2.13-1.25-1.88-2.33-3.5-5.47-4.08-6.61-.58-1.16-1.65-3.08-2.09-4.2-.44-1.12-.76-1.39-.43-3.92.34-2.53.72-5.08,1.03-6.58.31-1.51.86-4.17,1.54-5.49.65-1.26.59-2,3.39-2.2.63-.05,1.21-.07,1.75-.07m0-1.53h0c-.6,0-1.21.02-1.86.07-2.83.2-3.69,1.01-4.44,2.61-.06.14-.13.28-.2.41-.72,1.4-1.25,3.77-1.68,5.88-.39,1.91-.82,5.01-1.05,6.69-.31,2.34-.12,3.15.37,4.3.05.12.1.24.15.38.34.88.99,2.11,1.56,3.2.22.42.43.82.59,1.14.8,1.59,2.41,4.6,4.25,6.89.97,1.21,2.09,1.82,3.33,1.82,1,0,1.84-.39,2.58-.74.18-.09.36-.17.52-.24,1.85-.79,9.01-5.53,9.91-6.19.2-.15.63-.46,1.18-.85,2.97-2.11,5.94-4.25,6.85-5.16,1.16-1.17,1.48-1.79,1.48-2.88v-.1c.02-1.57-2.15-5.54-2.7-6.41-.87-1.36-1.9-2.92-3.56-5.08-1.9-2.47-3.15-2.98-4.6-3.56l-.06-.02c-1.13-.46-3.62-1-7.41-1.62l-.27-.04c-1.54-.25-3-.49-4.95-.49Z"/>
    <path class="cls-1" d="m22.45,4.1c1.46,0,3.26.05,4.34.35,1.35.37,2.03.15,2.87,2.89.87,2.83.97,4.68,1.13,6.78.16,2.1.4,5.89.19,7.38s-.34,2.53-2.01,4.66c-1.67,2.13-2.88,3.45-3.91,4.54-1.03,1.09-4.14,3.5-4.71,3.66-.19.05-.34.1-.51.1-.31,0-.69-.16-1.55-.72-1.34-.88-6.45-5.71-7.38-6.54-.92-.83-6.9-6.78-7.94-8.25-.95-1.35-2.33-2.53-.7-4.7,1.77-2.37,4.38-4.67,5.33-5.49.96-.83,2.54-2.31,3.51-2.99.97-.68,1.14-1.06,3.62-1.28,2.48-.21,4.98-.38,6.49-.4.35,0,.77,0,1.22,0m0-1.53h0c-.46,0-.88,0-1.24,0-1.9.02-4.95.27-6.6.41-2.32.2-3.05.57-4.05,1.32-.1.07-.2.15-.32.23-.76.53-1.78,1.44-2.68,2.25-.35.31-.67.6-.94.83-1.33,1.14-3.81,3.41-5.56,5.73-2.11,2.82-.58,4.82.32,6.03.12.16.24.32.35.47,1.18,1.67,7.33,7.76,8.17,8.51.19.17.58.53,1.08.99,2.69,2.49,5.41,4.99,6.48,5.69.93.61,1.62.97,2.39.97.37,0,.66-.08.88-.14h.05c1.1-.32,4.52-3.15,5.41-4.1,1.09-1.16,2.33-2.52,4-4.65,1.91-2.43,2.1-3.77,2.31-5.34v-.06c.18-1.22.12-3.81-.18-7.7l-.02-.28c-.15-2.04-.3-3.97-1.17-6.84-.84-2.74-1.8-3.41-3.49-3.81-.15-.03-.29-.07-.44-.11-1-.28-2.51-.41-4.75-.41Z"/>
  </g>
  <g>
    <path class="cls-4" d="m56.55,24.04h-7.05v-15.59c0-.29-.24-.52-.52-.52h-3.15c-.29,0-.52.24-.52.52v19.1c0,.29.24.52.52.52h10.73c.29,0,.52-.24.52-.52v-2.98c0-.29-.24-.52-.52-.52Z"/>
    <rect class="cls-4" x="63.72" y="7.92" width="4.2" height="20.15" rx=".52" ry=".52"/>
    <path class="cls-4" d="m92.37,7.92h-3.48c-.23,0-.43.15-.5.37l-4.6,14.57-4.63-14.57c-.07-.22-.27-.37-.5-.37h-3.45c-.17,0-.33.08-.43.22-.1.14-.13.31-.07.47l6.41,19.1c.07.21.27.36.5.36h4.3c.22,0,.42-.14.5-.36l6.44-19.1c.05-.16.03-.33-.07-.47s-.25-.22-.43-.22Z"/>
    <path class="cls-4" d="m106.61,16.24c-3.05-.92-3.56-1.53-3.56-2.56,0-1.09.94-1.79,2.39-1.79,1.55,0,2.63.66,3.39,2.07.06.12.17.21.31.24.13.04.27.02.39-.05l2.55-1.47c.23-.14.32-.44.2-.67-1.39-2.63-3.82-4.08-6.84-4.08-3.21,0-6.46,2.01-6.46,5.86,0,2.17.72,4.38,5.9,5.88,2.99.86,4.05,1.4,4.05,2.67s-1.04,1.9-2.94,1.9c-2.02,0-3.37-.82-4.15-2.49-.06-.13-.17-.22-.3-.26-.14-.04-.29-.03-.41.05l-2.61,1.53c-.22.13-.31.4-.22.63,1.21,2.93,3.9,4.55,7.57,4.55,4.33,0,7.12-2.33,7.12-5.94,0-4.03-3.39-5.1-6.4-6.04Z"/>
    <path class="cls-4" d="m127.65,7.92h-7.03c-.29,0-.52.24-.52.52v19.1c0,.29.24.52.52.52h3.15c.29,0,.52-.24.52-.52v-6h3.35c3.88,0,6.93-2.99,6.93-6.81s-3.04-6.81-6.93-6.81Zm2.75,6.81c0,1.63-1.18,2.87-2.75,2.87h-3.35v-5.73h3.35c1.59,0,2.75,1.21,2.75,2.87Z"/>
    <path class="cls-4" d="m149.97,8.28c-.07-.21-.27-.35-.49-.35h-4.31c-.22,0-.42.14-.49.35l-6.69,19.1c-.06.16-.03.34.07.48.1.14.26.22.43.22h3.42c.23,0,.43-.14.5-.36l1.05-3.22h7.73l1.07,3.22c.07.21.27.36.5.36h3.44c.17,0,.33-.08.43-.22.1-.14.12-.32.07-.48l-6.71-19.1Zm-.11,12.28h-5.05l2.53-7.52,2.53,7.52Z"/>
    <path class="cls-4" d="m172.15,11.89c1.99,0,3.75.89,4.71,2.39.14.22.44.29.68.16l2.62-1.52c.12-.07.21-.19.24-.33.03-.14,0-.27-.07-.39-1.77-2.68-4.83-4.27-8.19-4.27-5.79,0-10.15,4.36-10.15,10.15s4.36,10.15,10.15,10.15c3.39,0,6.45-1.6,8.19-4.28.07-.11.1-.25.07-.39-.03-.14-.12-.25-.24-.33l-2.63-1.52c-.24-.14-.53-.07-.68.16-.95,1.48-2.71,2.36-4.71,2.36-3.65,0-6.1-2.47-6.1-6.16s2.45-6.19,6.1-6.19Z"/>
    <path class="cls-4" d="m199.68,24.04h-7.85v-4.17h7c.29,0,.52-.24.52-.52v-2.93c0-.29-.24-.52-.52-.52h-7v-3.94h7.71c.29,0,.52-.24.52-.52v-2.98c0-.29-.24-.52-.52-.52h-11.38c-.29,0-.52.24-.52.52v19.1c0,.29.24.52.52.52h11.53c.29,0,.52-.24.52-.52v-2.98c0-.29-.24-.52-.52-.52Z"/>
  </g>
</svg>